%FSLAX23Y23*%
%MOIN*%
G70*
G01*
G75*
G04 Layer_Color=8421504*
%ADD10R,0.026X0.030*%
%ADD11R,0.030X0.026*%
%ADD12R,0.031X0.028*%
%ADD13R,0.039X0.031*%
%ADD14R,0.028X0.059*%
%ADD15R,0.012X0.020*%
%ADD16R,0.020X0.012*%
%ADD17R,0.051X0.022*%
%ADD18R,0.024X0.024*%
%ADD19R,0.118X0.039*%
%ADD20R,0.039X0.118*%
%ADD21R,0.010X0.020*%
%ADD22R,0.020X0.010*%
%ADD23R,0.010X0.013*%
%ADD24R,0.013X0.010*%
%ADD25O,0.065X0.012*%
%ADD26R,0.037X0.018*%
%ADD27R,0.035X0.031*%
%ADD28R,0.031X0.035*%
%ADD29R,0.063X0.224*%
%ADD30R,0.024X0.024*%
%ADD31R,0.035X0.026*%
%ADD32R,0.026X0.035*%
%ADD33R,0.033X0.059*%
%ADD34R,0.169X0.065*%
%ADD35R,0.053X0.094*%
%ADD36R,0.028X0.018*%
%ADD37R,0.063X0.098*%
%ADD38R,0.012X0.031*%
%ADD39R,0.031X0.012*%
%ADD40R,0.047X0.047*%
%ADD41R,0.051X0.016*%
%ADD42R,0.022X0.051*%
%ADD43C,0.010*%
%ADD44C,0.030*%
%ADD45C,0.015*%
%ADD46C,0.020*%
%ADD47C,0.040*%
%ADD48C,0.011*%
%ADD49C,0.008*%
%ADD50C,0.125*%
%ADD51C,0.118*%
%ADD52C,0.059*%
%ADD53R,0.059X0.059*%
%ADD54C,0.025*%
%ADD55C,0.010*%
%ADD56C,0.004*%
%ADD57C,0.001*%
%ADD58C,0.008*%
%ADD59C,0.006*%
D10*
X135Y-63D02*
D03*
Y-17D02*
D03*
X90Y-63D02*
D03*
Y-17D02*
D03*
X150Y-397D02*
D03*
Y-443D02*
D03*
X-545Y222D02*
D03*
Y268D02*
D03*
X-600D02*
D03*
Y222D02*
D03*
X90Y-392D02*
D03*
Y-438D02*
D03*
X-15Y-312D02*
D03*
Y-358D02*
D03*
X70Y248D02*
D03*
Y202D02*
D03*
X-130Y248D02*
D03*
Y202D02*
D03*
X-430Y-467D02*
D03*
Y-513D02*
D03*
Y-413D02*
D03*
Y-367D02*
D03*
X-1110Y553D02*
D03*
Y507D02*
D03*
Y443D02*
D03*
Y397D02*
D03*
X30Y-392D02*
D03*
Y-438D02*
D03*
X890Y567D02*
D03*
Y613D02*
D03*
X-625Y-547D02*
D03*
Y-593D02*
D03*
X950Y613D02*
D03*
Y567D02*
D03*
X245Y-497D02*
D03*
Y-543D02*
D03*
D11*
X82Y100D02*
D03*
X128D02*
D03*
X-627Y440D02*
D03*
X-673D02*
D03*
X1072Y565D02*
D03*
X1118D02*
D03*
X-248Y-190D02*
D03*
X-202D02*
D03*
X-1062Y620D02*
D03*
X-1108D02*
D03*
X-933Y220D02*
D03*
X-887D02*
D03*
X777Y565D02*
D03*
X823D02*
D03*
X657Y-620D02*
D03*
X703D02*
D03*
D12*
X-53Y-175D02*
D03*
X3D02*
D03*
Y-135D02*
D03*
X-53D02*
D03*
X1133Y655D02*
D03*
X1077D02*
D03*
Y615D02*
D03*
X1133D02*
D03*
D13*
X-536Y549D02*
D03*
Y631D02*
D03*
X-824Y549D02*
D03*
Y631D02*
D03*
D14*
X-591Y521D02*
D03*
X-710D02*
D03*
X-769D02*
D03*
D15*
X-277Y355D02*
D03*
X-301D02*
D03*
Y424D02*
D03*
X-277D02*
D03*
D16*
X-323Y366D02*
D03*
Y389D02*
D03*
Y413D02*
D03*
X-255D02*
D03*
Y389D02*
D03*
Y366D02*
D03*
D17*
X3Y225D02*
D03*
X-63Y199D02*
D03*
Y251D02*
D03*
D18*
X936Y-610D02*
D03*
X984D02*
D03*
X96Y609D02*
D03*
X144D02*
D03*
X-966Y620D02*
D03*
X-1014D02*
D03*
X936Y-565D02*
D03*
X984D02*
D03*
X1139Y-675D02*
D03*
X1091D02*
D03*
D19*
X320Y-268D02*
D03*
Y-201D02*
D03*
Y-134D02*
D03*
Y-67D02*
D03*
Y0D02*
D03*
Y67D02*
D03*
Y134D02*
D03*
Y201D02*
D03*
Y268D02*
D03*
D20*
X335Y472D02*
D03*
X402D02*
D03*
X469D02*
D03*
X536D02*
D03*
X603D02*
D03*
X670D02*
D03*
X737D02*
D03*
X804D02*
D03*
X871D02*
D03*
X938D02*
D03*
X1005D02*
D03*
X1072D02*
D03*
X1139D02*
D03*
Y-472D02*
D03*
X1072D02*
D03*
X1005D02*
D03*
X938D02*
D03*
X871D02*
D03*
X804D02*
D03*
X737D02*
D03*
X670D02*
D03*
X603D02*
D03*
X536D02*
D03*
X469D02*
D03*
X402D02*
D03*
X335D02*
D03*
D21*
X-169Y-428D02*
D03*
X-150D02*
D03*
X-130D02*
D03*
X-110D02*
D03*
X-91D02*
D03*
Y-332D02*
D03*
X-110D02*
D03*
X-130D02*
D03*
X-150D02*
D03*
X-169D02*
D03*
D22*
X-82Y-400D02*
D03*
Y-380D02*
D03*
Y-360D02*
D03*
X-178Y-360D02*
D03*
Y-380D02*
D03*
Y-400D02*
D03*
D23*
X160Y559D02*
D03*
X140D02*
D03*
X120D02*
D03*
X100D02*
D03*
Y498D02*
D03*
X120D02*
D03*
X140D02*
D03*
X160D02*
D03*
D24*
X99Y538D02*
D03*
Y519D02*
D03*
X161D02*
D03*
Y538D02*
D03*
D25*
X-498Y-449D02*
D03*
Y-430D02*
D03*
Y-410D02*
D03*
Y-390D02*
D03*
Y-371D02*
D03*
X-662Y-449D02*
D03*
Y-430D02*
D03*
Y-410D02*
D03*
Y-390D02*
D03*
Y-371D02*
D03*
D26*
X-967Y556D02*
D03*
Y504D02*
D03*
X-1053D02*
D03*
Y530D02*
D03*
Y556D02*
D03*
D27*
X-572Y-533D02*
D03*
Y-607D02*
D03*
X-488Y-570D02*
D03*
X-886Y278D02*
D03*
Y352D02*
D03*
X-971Y315D02*
D03*
D28*
X-743Y442D02*
D03*
X-817D02*
D03*
X-780Y358D02*
D03*
X-45Y442D02*
D03*
X-8Y358D02*
D03*
X-82D02*
D03*
D29*
X-777Y-450D02*
D03*
X-963D02*
D03*
D30*
X-435Y579D02*
D03*
Y531D02*
D03*
X-375Y366D02*
D03*
Y414D02*
D03*
X-240Y-364D02*
D03*
Y-316D02*
D03*
X-290Y-364D02*
D03*
Y-316D02*
D03*
X50Y531D02*
D03*
Y579D02*
D03*
X5Y531D02*
D03*
Y579D02*
D03*
X-380Y141D02*
D03*
Y189D02*
D03*
Y-366D02*
D03*
Y-414D02*
D03*
X225Y49D02*
D03*
Y1D02*
D03*
X180Y49D02*
D03*
Y1D02*
D03*
D31*
X-430Y369D02*
D03*
Y441D02*
D03*
D32*
X-304Y-195D02*
D03*
X-376D02*
D03*
D33*
X-487Y-300D02*
D03*
X-563D02*
D03*
X-487Y-220D02*
D03*
X-563D02*
D03*
X-948Y-270D02*
D03*
X-872D02*
D03*
D34*
X-828Y10D02*
D03*
X-592D02*
D03*
D35*
X-307Y-92D02*
D03*
X-203D02*
D03*
D36*
X-266Y541D02*
D03*
Y580D02*
D03*
Y619D02*
D03*
X-384D02*
D03*
Y580D02*
D03*
Y541D02*
D03*
D37*
X-325Y580D02*
D03*
D38*
X-336Y87D02*
D03*
X-356D02*
D03*
X-376D02*
D03*
X-396D02*
D03*
Y13D02*
D03*
X-376D02*
D03*
X-356D02*
D03*
X-336D02*
D03*
D39*
X-403Y50D02*
D03*
X-329D02*
D03*
D40*
X821Y620D02*
D03*
X739D02*
D03*
D41*
X1089Y-571D02*
D03*
Y-622D02*
D03*
Y-597D02*
D03*
X1152D02*
D03*
Y-622D02*
D03*
Y-571D02*
D03*
D42*
X150Y-573D02*
D03*
X124Y-507D02*
D03*
X176D02*
D03*
M02*
