%FSLAX23Y23*%
%MOIN*%
G70*
G01*
G75*
G04 Layer_Color=16711935*
%ADD10R,0.026X0.030*%
%ADD11R,0.030X0.026*%
%ADD12R,0.031X0.028*%
%ADD13R,0.039X0.031*%
%ADD14R,0.028X0.059*%
%ADD15R,0.012X0.020*%
%ADD16R,0.020X0.012*%
%ADD17R,0.051X0.022*%
%ADD18R,0.024X0.024*%
%ADD19R,0.118X0.039*%
%ADD20R,0.039X0.118*%
%ADD21R,0.010X0.020*%
%ADD22R,0.020X0.010*%
%ADD23R,0.010X0.013*%
%ADD24R,0.013X0.010*%
%ADD25O,0.065X0.012*%
%ADD26R,0.037X0.018*%
%ADD27R,0.035X0.031*%
%ADD28R,0.031X0.035*%
%ADD29R,0.063X0.224*%
%ADD30R,0.024X0.024*%
%ADD31R,0.035X0.026*%
%ADD32R,0.026X0.035*%
%ADD33R,0.033X0.059*%
%ADD34R,0.169X0.065*%
%ADD35R,0.053X0.094*%
%ADD36R,0.028X0.018*%
%ADD37R,0.063X0.098*%
%ADD38R,0.012X0.031*%
%ADD39R,0.031X0.012*%
%ADD40R,0.047X0.047*%
%ADD41R,0.051X0.016*%
%ADD42R,0.022X0.051*%
%ADD43C,0.010*%
%ADD44C,0.030*%
%ADD45C,0.015*%
%ADD46C,0.020*%
%ADD47C,0.040*%
%ADD48C,0.011*%
%ADD49C,0.008*%
%ADD50C,0.125*%
%ADD51C,0.118*%
%ADD52C,0.059*%
%ADD53R,0.059X0.059*%
%ADD54C,0.025*%
%ADD55C,0.010*%
%ADD56C,0.004*%
%ADD57C,0.001*%
%ADD58C,0.008*%
%ADD59C,0.006*%
%ADD60R,0.034X0.038*%
%ADD61R,0.038X0.034*%
%ADD62R,0.039X0.036*%
%ADD63R,0.047X0.039*%
%ADD64R,0.036X0.067*%
%ADD65R,0.013X0.021*%
%ADD66R,0.021X0.013*%
%ADD67R,0.059X0.030*%
%ADD68R,0.032X0.032*%
%ADD69R,0.126X0.047*%
%ADD70R,0.047X0.126*%
%ADD71R,0.012X0.022*%
%ADD72R,0.022X0.012*%
%ADD73R,0.016X0.019*%
%ADD74R,0.019X0.016*%
%ADD75O,0.073X0.020*%
%ADD76R,0.041X0.022*%
%ADD77R,0.043X0.039*%
%ADD78R,0.039X0.043*%
%ADD79R,0.071X0.232*%
%ADD80R,0.032X0.032*%
%ADD81R,0.043X0.034*%
%ADD82R,0.034X0.043*%
%ADD83R,0.041X0.067*%
%ADD84R,0.177X0.073*%
%ADD85R,0.061X0.102*%
%ADD86R,0.031X0.022*%
%ADD87R,0.067X0.102*%
%ADD88R,0.018X0.037*%
%ADD89R,0.037X0.018*%
%ADD90R,0.055X0.055*%
%ADD91R,0.059X0.024*%
%ADD92R,0.030X0.059*%
%ADD93C,0.008*%
%ADD94C,0.135*%
%ADD95C,0.126*%
%ADD96C,0.067*%
%ADD97R,0.067X0.067*%
%ADD98C,0.033*%
D93*
X-621Y590D02*
D03*
X-739D02*
D03*
D94*
X-51Y0D02*
D03*
D95*
X-1100Y256D02*
D03*
Y-256D02*
D03*
D96*
X-990Y115D02*
D03*
Y-85D02*
D03*
Y15D02*
D03*
X-1090D02*
D03*
Y-85D02*
D03*
D97*
Y115D02*
D03*
D98*
X45Y35D02*
D03*
X-220Y590D02*
D03*
X-1160Y180D02*
D03*
Y-505D02*
D03*
Y-420D02*
D03*
X410Y100D02*
D03*
X402Y367D02*
D03*
X90Y140D02*
D03*
X40Y-135D02*
D03*
X-315Y145D02*
D03*
X-105Y-513D02*
D03*
X-32Y-609D02*
D03*
X80Y-565D02*
D03*
X55Y-495D02*
D03*
X245Y-585D02*
D03*
X545Y-570D02*
D03*
X570Y-620D02*
D03*
X840Y-585D02*
D03*
X1035Y-595D02*
D03*
Y-635D02*
D03*
Y-555D02*
D03*
X1180Y-675D02*
D03*
X60Y-215D02*
D03*
X150Y-635D02*
D03*
X75Y-335D02*
D03*
X-35Y-510D02*
D03*
M02*
