%FSLAX23Y23*%
%MOIN*%
G70*
G01*
G75*
G04 Layer_Physical_Order=2*
G04 Layer_Color=16711680*
%ADD10R,0.026X0.030*%
%ADD11R,0.030X0.026*%
%ADD12R,0.031X0.028*%
%ADD13R,0.039X0.031*%
%ADD14R,0.028X0.059*%
%ADD15R,0.012X0.020*%
%ADD16R,0.020X0.012*%
%ADD17R,0.051X0.022*%
%ADD18R,0.024X0.024*%
%ADD19R,0.118X0.039*%
%ADD20R,0.039X0.118*%
%ADD21R,0.010X0.020*%
%ADD22R,0.020X0.010*%
%ADD23R,0.010X0.013*%
%ADD24R,0.013X0.010*%
%ADD25O,0.065X0.012*%
%ADD26R,0.037X0.018*%
%ADD27R,0.035X0.031*%
%ADD28R,0.031X0.035*%
%ADD29R,0.063X0.224*%
%ADD30R,0.024X0.024*%
%ADD31R,0.035X0.026*%
%ADD32R,0.026X0.035*%
%ADD33R,0.033X0.059*%
%ADD34R,0.169X0.065*%
%ADD35R,0.053X0.094*%
%ADD36R,0.028X0.018*%
%ADD37R,0.063X0.098*%
%ADD38R,0.012X0.031*%
%ADD39R,0.031X0.012*%
%ADD40R,0.047X0.047*%
%ADD41R,0.051X0.016*%
%ADD42R,0.022X0.051*%
%ADD43C,0.010*%
%ADD44C,0.030*%
%ADD45C,0.015*%
%ADD46C,0.020*%
%ADD47C,0.040*%
%ADD48C,0.011*%
%ADD49C,0.008*%
%ADD50C,0.125*%
%ADD51C,0.118*%
%ADD52C,0.059*%
%ADD53R,0.059X0.059*%
%ADD54C,0.025*%
G36*
X37Y-470D02*
Y-486D01*
X36Y-487D01*
X34Y-495D01*
X36Y-503D01*
X40Y-510D01*
X44Y-513D01*
X47Y-522D01*
X47Y-524D01*
X32Y-540D01*
X-28D01*
X-29Y-530D01*
X-27Y-529D01*
X-20Y-525D01*
X-16Y-518D01*
X-14Y-510D01*
X-14Y-508D01*
X27Y-466D01*
X37Y-470D01*
D02*
G37*
G36*
X357Y535D02*
Y345D01*
X358Y340D01*
X361Y336D01*
X387Y310D01*
Y149D01*
X386Y149D01*
X382Y142D01*
X380Y134D01*
X382Y126D01*
X386Y119D01*
X393Y115D01*
X391Y109D01*
X391Y108D01*
X389Y100D01*
X391Y92D01*
X395Y85D01*
X396Y85D01*
X402Y81D01*
X404Y80D01*
D01*
X411Y75D01*
X413Y70D01*
Y52D01*
X271Y-91D01*
X268Y-95D01*
X267Y-100D01*
Y-238D01*
X257Y-244D01*
X256Y-243D01*
X256Y-243D01*
Y231D01*
X256Y235D01*
X255Y240D01*
D01*
Y240D01*
X255Y250D01*
X257Y253D01*
X258Y253D01*
X262Y260D01*
X264Y268D01*
X262Y276D01*
X258Y283D01*
X251Y287D01*
X243Y289D01*
Y445D01*
X242Y450D01*
X239Y454D01*
X221Y473D01*
X221Y475D01*
X219Y483D01*
X215Y490D01*
X208Y494D01*
X200Y496D01*
Y622D01*
X270D01*
X357Y535D01*
D02*
G37*
G36*
X25Y475D02*
X60D01*
X61Y470D01*
X65Y463D01*
X67Y462D01*
Y390D01*
X61Y384D01*
X58Y381D01*
X58Y381D01*
X48Y387D01*
Y405D01*
X48Y405D01*
X47Y410D01*
X44Y414D01*
X18Y441D01*
X19Y442D01*
X17Y450D01*
X12Y457D01*
X6Y462D01*
X-2Y463D01*
X-10Y462D01*
X-17Y457D01*
X-22Y450D01*
X-23Y442D01*
X-22Y434D01*
X-17Y428D01*
X-10Y423D01*
X-2Y421D01*
X-1Y422D01*
X22Y400D01*
Y271D01*
X20Y270D01*
X16Y263D01*
X14Y255D01*
X16Y247D01*
X20Y240D01*
X27Y236D01*
X35Y234D01*
X43Y236D01*
X50Y240D01*
X51Y242D01*
X130D01*
X174Y197D01*
X174Y195D01*
X176Y187D01*
X180Y180D01*
X187Y176D01*
X195Y174D01*
X197Y174D01*
X207Y167D01*
Y-181D01*
X200Y-185D01*
X196Y-192D01*
X194Y-200D01*
X196Y-208D01*
X200Y-215D01*
X207Y-219D01*
X215Y-221D01*
X219Y-220D01*
X229Y-226D01*
Y-252D01*
X228Y-253D01*
X223Y-260D01*
X221Y-268D01*
X223Y-276D01*
X228Y-282D01*
X234Y-287D01*
X242Y-289D01*
X250Y-287D01*
X257Y-283D01*
X259Y-283D01*
X267Y-286D01*
Y-305D01*
X84Y-487D01*
X82Y-487D01*
X73Y-480D01*
Y-428D01*
X123Y-378D01*
X126Y-374D01*
X127Y-372D01*
X128Y-365D01*
Y-265D01*
X127Y-259D01*
X127Y-258D01*
X123Y-252D01*
X80Y-209D01*
X79Y-207D01*
X75Y-200D01*
X68Y-196D01*
X60Y-194D01*
X52Y-196D01*
X45Y-200D01*
X41Y-207D01*
X39Y-215D01*
X41Y-223D01*
X45Y-230D01*
X52Y-234D01*
X54Y-235D01*
X92Y-273D01*
Y-309D01*
X85Y-314D01*
X82Y-315D01*
X75Y-314D01*
X67Y-316D01*
X60Y-320D01*
X56Y-327D01*
X54Y-335D01*
X54Y-337D01*
X21Y-371D01*
X18Y-375D01*
X17Y-380D01*
Y-440D01*
X-27Y-483D01*
X-30Y-484D01*
X-30Y-484D01*
X-38Y-477D01*
X-37Y-472D01*
Y-426D01*
X-35Y-425D01*
X-31Y-418D01*
X-29Y-410D01*
X-31Y-402D01*
X-35Y-395D01*
X-42Y-391D01*
X-50Y-389D01*
X-58Y-391D01*
X-65Y-395D01*
X-69Y-402D01*
X-71Y-410D01*
X-69Y-418D01*
X-65Y-425D01*
X-63Y-426D01*
Y-467D01*
X-93Y-496D01*
X-97Y-494D01*
X-105Y-492D01*
X-113Y-494D01*
X-120Y-498D01*
X-121Y-500D01*
X-192D01*
X-252Y-440D01*
Y-422D01*
X-242Y-416D01*
X-242Y-416D01*
X-239Y-419D01*
X-194Y-464D01*
X-190Y-467D01*
X-185Y-468D01*
X-126D01*
X-125Y-470D01*
X-118Y-474D01*
X-110Y-476D01*
X-102Y-474D01*
X-95Y-470D01*
X-91Y-463D01*
X-89Y-455D01*
X-91Y-447D01*
X-95Y-440D01*
X-102Y-436D01*
X-110Y-434D01*
X-118Y-436D01*
X-125Y-440D01*
X-126Y-442D01*
X-180D01*
X-217Y-405D01*
Y-133D01*
X-207Y-130D01*
X-160Y-176D01*
X-161Y-180D01*
X-159Y-188D01*
X-155Y-195D01*
X-153Y-196D01*
Y-274D01*
X-155Y-275D01*
X-159Y-282D01*
X-161Y-290D01*
X-159Y-298D01*
X-155Y-305D01*
X-148Y-309D01*
X-140Y-311D01*
X-132Y-309D01*
X-125Y-305D01*
X-121Y-298D01*
X-119Y-290D01*
X-121Y-282D01*
X-125Y-275D01*
X-127Y-274D01*
Y-196D01*
X-125Y-195D01*
X-121Y-188D01*
X-119Y-180D01*
X-121Y-172D01*
X-125Y-165D01*
X-132Y-161D01*
X-140Y-159D01*
X-187Y-112D01*
Y-8D01*
X-177Y-1D01*
X-175Y-1D01*
X-167Y1D01*
X-160Y5D01*
X-156Y12D01*
X-154Y20D01*
X-156Y28D01*
X-160Y35D01*
X-162Y36D01*
Y165D01*
X-121Y206D01*
X-118Y210D01*
X-117Y215D01*
Y264D01*
X-115Y265D01*
X-111Y272D01*
X-109Y280D01*
X-111Y288D01*
X-115Y295D01*
X-122Y299D01*
X-130Y301D01*
X-138Y299D01*
X-145Y295D01*
X-149Y288D01*
X-151Y280D01*
X-149Y272D01*
X-145Y265D01*
X-143Y264D01*
Y220D01*
X-177Y187D01*
X-187Y191D01*
Y280D01*
X-143Y324D01*
X-138Y321D01*
X-130Y319D01*
X-122Y321D01*
X-115Y325D01*
X-111Y332D01*
X-109Y340D01*
X-111Y348D01*
X-115Y355D01*
X-122Y359D01*
X-127Y360D01*
X-131Y369D01*
X-131Y370D01*
X-101Y401D01*
X-98Y405D01*
X-97Y410D01*
Y469D01*
X-95Y470D01*
X-91Y477D01*
X-89Y485D01*
X-89Y487D01*
X-80Y497D01*
X25D01*
Y475D01*
D02*
G37*
G36*
X1180Y-654D02*
X1172Y-656D01*
X1165Y-660D01*
X1164Y-662D01*
X1050D01*
X1047Y-652D01*
X1050Y-650D01*
X1054Y-643D01*
X1056Y-635D01*
X1054Y-627D01*
X1050Y-620D01*
Y-610D01*
X1054Y-603D01*
X1056Y-595D01*
X1054Y-587D01*
X1050Y-580D01*
Y-570D01*
X1054Y-563D01*
X1056Y-555D01*
X1054Y-547D01*
X1050Y-540D01*
X1043Y-536D01*
X1035Y-534D01*
X1027Y-536D01*
X1020Y-540D01*
X1019Y-542D01*
X675D01*
X670Y-543D01*
X666Y-546D01*
X655Y-557D01*
X561D01*
X560Y-555D01*
X553Y-551D01*
X545Y-549D01*
X537Y-551D01*
X530Y-555D01*
X526Y-562D01*
X524Y-570D01*
X524Y-570D01*
X516Y-580D01*
X270D01*
X269Y-580D01*
X264Y-577D01*
X260Y-570D01*
X253Y-566D01*
X245Y-564D01*
X237Y-566D01*
X236Y-567D01*
X108D01*
X100Y-559D01*
X99Y-557D01*
X95Y-550D01*
X88Y-546D01*
X80Y-544D01*
X78Y-544D01*
X74Y-535D01*
X289Y-319D01*
X292Y-315D01*
X293Y-310D01*
Y-105D01*
X436Y37D01*
X439Y41D01*
X440Y47D01*
Y74D01*
X450Y85D01*
X453Y89D01*
X454Y94D01*
Y150D01*
X453Y155D01*
X450Y159D01*
X448Y161D01*
Y310D01*
X520Y381D01*
X855D01*
X856Y379D01*
X863Y375D01*
X871Y373D01*
X879Y375D01*
X886Y379D01*
X890Y386D01*
X892Y394D01*
X890Y402D01*
X886Y409D01*
X879Y413D01*
X871Y415D01*
X863Y413D01*
X856Y409D01*
X855Y407D01*
X514D01*
X509Y406D01*
X505Y404D01*
X432Y330D01*
X425Y331D01*
X416Y341D01*
Y352D01*
X417Y353D01*
X422Y359D01*
X423Y367D01*
X422Y375D01*
X417Y382D01*
X410Y387D01*
X402Y388D01*
X394Y387D01*
X393Y386D01*
X383Y391D01*
Y540D01*
X382Y545D01*
X379Y549D01*
X284Y644D01*
X280Y647D01*
X275Y648D01*
X200D01*
Y680D01*
X982D01*
X990Y675D01*
X990Y670D01*
X987Y669D01*
X982Y666D01*
X980Y665D01*
X976Y658D01*
X974Y650D01*
X976Y642D01*
X980Y635D01*
X987Y631D01*
X993Y629D01*
X1019Y604D01*
X1024Y600D01*
X1030Y599D01*
X1032D01*
X1037Y596D01*
X1045Y594D01*
X1053Y596D01*
X1060Y600D01*
X1064Y607D01*
X1066Y615D01*
X1064Y623D01*
X1060Y630D01*
X1053Y634D01*
X1045Y636D01*
X1037Y634D01*
X1035Y633D01*
X1016Y652D01*
X1014Y658D01*
X1010Y665D01*
X1008Y666D01*
X1003Y669D01*
X1000Y670D01*
X1000Y675D01*
X1008Y680D01*
X1180D01*
Y-654D01*
D02*
G37*
G36*
X-429Y670D02*
X-545Y553D01*
X-612D01*
X-614Y563D01*
X-607Y566D01*
X-601Y570D01*
X-597Y576D01*
X-594Y583D01*
X-593Y590D01*
X-594Y597D01*
X-597Y604D01*
X-601Y610D01*
X-607Y614D01*
X-614Y617D01*
X-621Y618D01*
X-628Y617D01*
X-635Y614D01*
X-641Y610D01*
X-645Y604D01*
X-648Y597D01*
X-649Y590D01*
X-648Y583D01*
X-645Y576D01*
X-641Y570D01*
X-635Y566D01*
X-628Y563D01*
X-630Y553D01*
X-730D01*
X-732Y563D01*
X-725Y566D01*
X-719Y570D01*
X-715Y576D01*
X-712Y583D01*
X-711Y590D01*
X-712Y597D01*
X-715Y604D01*
X-719Y610D01*
X-725Y614D01*
X-732Y617D01*
X-739Y618D01*
X-746Y617D01*
X-753Y614D01*
X-759Y610D01*
X-763Y604D01*
X-766Y597D01*
X-767Y590D01*
X-766Y583D01*
X-763Y576D01*
X-759Y570D01*
X-753Y566D01*
X-746Y563D01*
X-748Y553D01*
X-770D01*
X-841Y624D01*
X-845Y627D01*
X-850Y628D01*
X-914D01*
X-915Y630D01*
X-922Y634D01*
X-930Y636D01*
X-938Y634D01*
X-945Y630D01*
X-949Y623D01*
X-951Y615D01*
X-949Y607D01*
X-945Y600D01*
X-938Y596D01*
X-930Y594D01*
X-922Y596D01*
X-915Y600D01*
X-914Y602D01*
X-855D01*
X-784Y531D01*
X-784Y530D01*
X-787Y520D01*
X-907D01*
X-913Y524D01*
X-921Y525D01*
X-929Y524D01*
X-935Y519D01*
X-940Y512D01*
X-941Y504D01*
X-940Y496D01*
X-935Y490D01*
X-929Y485D01*
X-921Y484D01*
X-913Y485D01*
X-907Y489D01*
X-661D01*
X-611Y438D01*
X-609Y432D01*
X-605Y425D01*
X-598Y421D01*
X-590Y419D01*
X-582Y421D01*
X-575Y425D01*
X-571Y432D01*
X-569Y440D01*
X-571Y448D01*
X-575Y455D01*
X-582Y459D01*
X-588Y461D01*
X-643Y516D01*
X-645Y517D01*
X-642Y527D01*
X-540D01*
X-535Y528D01*
X-531Y531D01*
X-419Y642D01*
X-410Y638D01*
Y500D01*
X-178D01*
Y410D01*
X-184Y409D01*
X-187Y406D01*
X-196Y412D01*
X-196Y413D01*
X-198Y421D01*
X-202Y428D01*
X-209Y432D01*
X-217Y434D01*
X-225Y432D01*
X-232Y428D01*
X-233Y426D01*
X-442D01*
X-447Y425D01*
X-451Y422D01*
X-543Y331D01*
X-545Y331D01*
X-553Y329D01*
X-560Y325D01*
X-564Y318D01*
X-566Y310D01*
X-564Y302D01*
X-560Y295D01*
X-553Y291D01*
X-545Y289D01*
X-537Y291D01*
X-530Y295D01*
X-526Y302D01*
X-524Y310D01*
X-524Y312D01*
X-436Y400D01*
X-233D01*
X-232Y398D01*
X-225Y394D01*
X-217Y392D01*
X-213Y393D01*
X-204Y388D01*
X-202Y386D01*
X-202Y382D01*
X-274Y309D01*
X-277Y305D01*
X-278Y300D01*
Y183D01*
X-290D01*
X-295Y182D01*
X-296Y182D01*
X-872D01*
X-877Y181D01*
X-881Y178D01*
X-942Y116D01*
X-953Y120D01*
X-953Y125D01*
X-957Y134D01*
X-963Y142D01*
X-971Y148D01*
X-980Y152D01*
X-990Y153D01*
X-1000Y152D01*
X-1009Y148D01*
X-1017Y142D01*
X-1023Y134D01*
X-1027Y125D01*
X-1028Y115D01*
X-1027Y105D01*
X-1023Y96D01*
X-1017Y88D01*
X-1020Y78D01*
X-1040D01*
X-1042Y78D01*
X-1050Y82D01*
X-1052Y84D01*
Y153D01*
X-1128D01*
Y77D01*
X-1060D01*
X-1056Y67D01*
X-1075Y49D01*
X-1080Y52D01*
X-1090Y53D01*
X-1100Y52D01*
X-1109Y48D01*
X-1117Y42D01*
X-1123Y34D01*
X-1127Y25D01*
X-1128Y15D01*
X-1127Y5D01*
X-1123Y-4D01*
X-1117Y-12D01*
X-1109Y-18D01*
X-1100Y-22D01*
X-1090Y-23D01*
X-1080Y-22D01*
X-1071Y-18D01*
X-1063Y-12D01*
X-1057Y-4D01*
X-1053Y5D01*
X-1052Y15D01*
X-1053Y25D01*
X-1056Y30D01*
X-1035Y52D01*
X-1020D01*
X-1017Y42D01*
X-1023Y34D01*
X-1027Y25D01*
X-1028Y15D01*
X-1027Y5D01*
X-1023Y-4D01*
X-1017Y-12D01*
X-1009Y-18D01*
X-1000Y-22D01*
X-990Y-23D01*
X-980Y-22D01*
X-971Y-18D01*
X-963Y-12D01*
X-957Y-4D01*
X-953Y5D01*
X-952Y15D01*
X-953Y25D01*
X-956Y30D01*
X-855Y132D01*
X-331D01*
X-330Y130D01*
X-323Y126D01*
X-315Y124D01*
X-307Y126D01*
X-300Y130D01*
X-296Y137D01*
X-294Y145D01*
X-294Y145D01*
X-293Y148D01*
X-288Y150D01*
X-278Y143D01*
Y136D01*
X-280Y135D01*
X-284Y128D01*
X-286Y120D01*
X-284Y112D01*
X-280Y105D01*
X-278Y104D01*
Y41D01*
X-279Y41D01*
X-288Y37D01*
X-292Y39D01*
X-300Y41D01*
X-308Y39D01*
X-315Y35D01*
X-316Y33D01*
X-355D01*
X-404Y83D01*
X-404Y85D01*
X-406Y93D01*
X-410Y100D01*
X-417Y104D01*
X-425Y106D01*
X-433Y104D01*
X-440Y100D01*
X-444Y93D01*
X-446Y85D01*
X-444Y77D01*
X-440Y70D01*
X-433Y66D01*
X-425Y64D01*
X-423Y64D01*
X-369Y11D01*
X-365Y8D01*
X-360Y7D01*
X-316D01*
X-315Y5D01*
X-308Y1D01*
X-300Y-1D01*
X-292Y1D01*
X-288Y3D01*
X-279Y-1D01*
X-278Y-1D01*
Y-445D01*
X-277Y-450D01*
X-274Y-454D01*
X-206Y-522D01*
X-202Y-525D01*
X-197Y-526D01*
X-126D01*
X-123Y-530D01*
X-128Y-540D01*
X-527D01*
X-584Y-482D01*
X-584Y-480D01*
X-586Y-472D01*
X-590Y-465D01*
X-597Y-461D01*
X-605Y-459D01*
X-613Y-461D01*
X-620Y-465D01*
X-624Y-472D01*
X-626Y-480D01*
X-624Y-488D01*
X-620Y-495D01*
X-613Y-499D01*
X-605Y-501D01*
X-603Y-501D01*
X-541Y-562D01*
X-537Y-565D01*
X-532Y-566D01*
X37D01*
X42Y-565D01*
X46Y-562D01*
X50Y-559D01*
X59Y-563D01*
X59Y-565D01*
X61Y-573D01*
X65Y-580D01*
X72Y-584D01*
X72Y-594D01*
X71Y-595D01*
X-16D01*
X-17Y-594D01*
X-24Y-589D01*
X-32Y-588D01*
X-39Y-589D01*
X-46Y-594D01*
X-51Y-601D01*
X-52Y-609D01*
X-51Y-616D01*
X-46Y-623D01*
X-39Y-628D01*
X-32Y-629D01*
X-24Y-628D01*
X-17Y-623D01*
X-16Y-622D01*
X123D01*
X130Y-632D01*
X129Y-635D01*
X131Y-643D01*
X135Y-650D01*
X142Y-654D01*
X150Y-656D01*
X158Y-654D01*
X165Y-650D01*
X169Y-643D01*
X171Y-635D01*
X170Y-632D01*
X177Y-622D01*
X255D01*
X260Y-621D01*
X264Y-618D01*
X275Y-607D01*
X543D01*
X550Y-617D01*
X549Y-620D01*
X551Y-628D01*
X555Y-635D01*
X562Y-639D01*
X570Y-641D01*
X572Y-641D01*
X576Y-644D01*
X580Y-647D01*
X585Y-648D01*
X985D01*
X1007Y-671D01*
X1003Y-680D01*
X-1180D01*
Y680D01*
X-433D01*
X-429Y670D01*
D02*
G37*
%LPC*%
G36*
X-1051Y-90D02*
X-1085D01*
Y-124D01*
X-1080Y-124D01*
X-1070Y-120D01*
X-1062Y-113D01*
X-1055Y-105D01*
X-1051Y-95D01*
X-1051Y-90D01*
D02*
G37*
G36*
X-990Y-47D02*
X-1000Y-48D01*
X-1009Y-52D01*
X-1017Y-58D01*
X-1023Y-66D01*
X-1027Y-75D01*
X-1028Y-85D01*
X-1027Y-95D01*
X-1023Y-104D01*
X-1017Y-112D01*
X-1009Y-118D01*
X-1000Y-122D01*
X-990Y-123D01*
X-980Y-122D01*
X-971Y-118D01*
X-963Y-112D01*
X-957Y-104D01*
X-953Y-95D01*
X-952Y-85D01*
X-953Y-75D01*
X-957Y-66D01*
X-963Y-58D01*
X-971Y-52D01*
X-980Y-48D01*
X-990Y-47D01*
D02*
G37*
G36*
X-1100Y-189D02*
X-1113Y-190D01*
X-1126Y-194D01*
X-1137Y-200D01*
X-1148Y-208D01*
X-1156Y-218D01*
X-1162Y-230D01*
X-1166Y-243D01*
X-1167Y-256D01*
X-1166Y-269D01*
X-1162Y-282D01*
X-1156Y-293D01*
X-1148Y-304D01*
X-1137Y-312D01*
X-1126Y-318D01*
X-1113Y-322D01*
X-1100Y-323D01*
X-1087Y-322D01*
X-1074Y-318D01*
X-1063Y-312D01*
X-1052Y-304D01*
X-1044Y-293D01*
X-1038Y-282D01*
X-1034Y-269D01*
X-1033Y-256D01*
X-1034Y-243D01*
X-1038Y-230D01*
X-1044Y-218D01*
X-1052Y-208D01*
X-1063Y-200D01*
X-1074Y-194D01*
X-1087Y-190D01*
X-1100Y-189D01*
D02*
G37*
G36*
X-1095Y-90D02*
X-1129D01*
X-1129Y-95D01*
X-1125Y-105D01*
X-1118Y-113D01*
X-1110Y-120D01*
X-1100Y-124D01*
X-1095Y-124D01*
Y-90D01*
D02*
G37*
G36*
X-51Y73D02*
X-65Y71D01*
X-79Y67D01*
X-91Y61D01*
X-103Y52D01*
X-112Y40D01*
X-118Y28D01*
X-122Y14D01*
X-124Y0D01*
X-122Y-14D01*
X-118Y-28D01*
X-112Y-40D01*
X-103Y-52D01*
X-91Y-61D01*
X-79Y-67D01*
X-65Y-71D01*
X-51Y-73D01*
X-37Y-71D01*
X-23Y-67D01*
X-11Y-61D01*
X1Y-52D01*
X10Y-40D01*
X16Y-28D01*
X20Y-14D01*
X22Y0D01*
X20Y14D01*
X16Y28D01*
X10Y40D01*
X1Y52D01*
X-11Y61D01*
X-23Y67D01*
X-37Y71D01*
X-51Y73D01*
D02*
G37*
G36*
X-1100Y323D02*
X-1113Y322D01*
X-1126Y318D01*
X-1137Y312D01*
X-1148Y304D01*
X-1156Y293D01*
X-1162Y282D01*
X-1166Y269D01*
X-1167Y256D01*
X-1166Y243D01*
X-1162Y230D01*
X-1156Y218D01*
X-1148Y208D01*
X-1137Y200D01*
X-1126Y194D01*
X-1113Y190D01*
X-1100Y189D01*
X-1087Y190D01*
X-1074Y194D01*
X-1063Y200D01*
X-1052Y208D01*
X-1044Y218D01*
X-1038Y230D01*
X-1034Y243D01*
X-1033Y256D01*
X-1034Y269D01*
X-1038Y282D01*
X-1044Y293D01*
X-1052Y304D01*
X-1063Y312D01*
X-1074Y318D01*
X-1087Y322D01*
X-1100Y323D01*
D02*
G37*
G36*
X675Y606D02*
X667Y604D01*
X660Y600D01*
X656Y593D01*
X654Y585D01*
X656Y577D01*
X660Y570D01*
X667Y566D01*
X675Y564D01*
X683Y566D01*
X688Y569D01*
X873D01*
X1049Y393D01*
X1051Y387D01*
X1055Y380D01*
X1062Y376D01*
X1070Y374D01*
X1078Y376D01*
X1085Y380D01*
X1089Y387D01*
X1091Y395D01*
X1089Y403D01*
X1085Y410D01*
X1078Y414D01*
X1072Y416D01*
X891Y596D01*
X886Y600D01*
X880Y601D01*
X688D01*
X683Y604D01*
X675Y606D01*
D02*
G37*
G36*
X90Y161D02*
X82Y159D01*
X75Y155D01*
X71Y148D01*
X69Y140D01*
X71Y132D01*
X75Y125D01*
X77Y124D01*
Y-55D01*
X61Y-71D01*
X58Y-75D01*
X57Y-80D01*
Y-110D01*
X50Y-115D01*
X47Y-115D01*
X40Y-114D01*
X32Y-116D01*
X25Y-120D01*
X21Y-127D01*
X19Y-135D01*
X21Y-143D01*
X25Y-150D01*
X32Y-154D01*
X40Y-156D01*
X48Y-154D01*
X55Y-150D01*
X56Y-148D01*
X70D01*
X75Y-147D01*
X79Y-144D01*
X82Y-140D01*
X83Y-135D01*
Y-85D01*
X99Y-69D01*
X102Y-65D01*
X103Y-60D01*
Y124D01*
X105Y125D01*
X109Y132D01*
X111Y140D01*
X109Y148D01*
X105Y155D01*
X98Y159D01*
X90Y161D01*
D02*
G37*
G36*
X-1095Y-46D02*
X-1100Y-46D01*
X-1110Y-50D01*
X-1118Y-57D01*
X-1125Y-65D01*
X-1129Y-75D01*
X-1129Y-80D01*
X-1095D01*
Y-46D01*
D02*
G37*
G36*
X-1085D02*
Y-80D01*
X-1051D01*
X-1051Y-75D01*
X-1055Y-65D01*
X-1062Y-57D01*
X-1070Y-50D01*
X-1080Y-46D01*
X-1085Y-46D01*
D02*
G37*
%LPD*%
D43*
X230Y280D02*
X243Y268D01*
X410Y100D02*
X425Y115D01*
X426Y80D02*
X441Y94D01*
X426Y47D02*
Y80D01*
X280Y-100D02*
X426Y47D01*
X441Y94D02*
Y150D01*
X280Y-310D02*
Y-100D01*
X425Y115D02*
Y144D01*
X416Y152D02*
X425Y144D01*
X416Y152D02*
Y322D01*
X402Y335D02*
X416Y322D01*
X402Y335D02*
Y367D01*
X435Y156D02*
Y315D01*
Y156D02*
X441Y150D01*
X400Y135D02*
X401Y134D01*
X400Y135D02*
Y315D01*
X370Y345D02*
X400Y315D01*
X370Y345D02*
Y540D01*
X435Y315D02*
X514Y394D01*
X275Y635D02*
X370Y540D01*
X70Y-135D02*
Y-80D01*
X40Y-135D02*
X70D01*
X-265Y170D02*
Y300D01*
Y120D02*
Y170D01*
X-290D02*
X-265D01*
X-292Y169D02*
X-290Y170D01*
X-872Y169D02*
X-292D01*
X-975Y65D02*
X-872Y169D01*
X-230Y-410D02*
Y290D01*
X-860Y145D02*
X-315D01*
X-990Y15D02*
X-860Y145D01*
X-200Y-118D02*
Y285D01*
X-175Y170D02*
X-130Y215D01*
X-175Y20D02*
Y170D01*
X-130Y215D02*
Y280D01*
X-1040Y65D02*
X-975D01*
X-1090Y15D02*
X-1040Y65D01*
X-105Y-513D02*
X-91D01*
X-197D02*
X-105D01*
X-532Y-553D02*
X37D01*
X-32Y-609D02*
X255D01*
X270Y-594D01*
X662D01*
X670Y-585D01*
X760D01*
X660Y-570D02*
X675Y-555D01*
X545Y-570D02*
X660D01*
X675Y-555D02*
X1035D01*
X790Y-615D02*
X1015D01*
X760Y-585D02*
X790Y-615D01*
X37Y-553D02*
X280Y-310D01*
X570Y-620D02*
X585Y-635D01*
X990D01*
X840Y-585D02*
X850Y-595D01*
X1035D01*
X990Y-635D02*
X1030Y-675D01*
X1015Y-615D02*
X1035Y-635D01*
X1030Y-675D02*
X1180D01*
X30Y-380D02*
X75Y-335D01*
X30Y-445D02*
Y-380D01*
X-35Y-510D02*
X30Y-445D01*
X-50Y-472D02*
Y-410D01*
X-91Y-513D02*
X-50Y-472D01*
X-605Y-480D02*
X-532Y-553D01*
X-442Y413D02*
X-217D01*
X-545Y310D02*
X-442Y413D01*
X-415Y665D02*
X150D01*
X180Y635D01*
X275D01*
X-540Y540D02*
X-415Y665D01*
X-232Y366D02*
X-231D01*
X-176Y389D02*
X-165Y400D01*
X-265Y300D02*
X-176Y389D01*
X-165Y400D02*
Y520D01*
X190Y475D02*
X200D01*
X124Y541D02*
X190Y475D01*
X-144Y541D02*
X124D01*
X200Y475D02*
X230Y445D01*
X-850Y615D02*
X-775Y540D01*
X-540D01*
X-165Y520D02*
X-144Y541D01*
X-930Y615D02*
X-850D01*
X242Y-268D02*
Y235D01*
X-140Y-290D02*
Y-180D01*
X230Y280D02*
Y445D01*
X871Y394D02*
X873Y391D01*
X514Y394D02*
X871D01*
X215Y-200D02*
X220Y-195D01*
Y230D01*
X190Y287D02*
Y440D01*
Y287D02*
X242Y235D01*
X-185Y-455D02*
X-110D01*
Y485D02*
X-85Y510D01*
X120D01*
X190Y440D01*
X120Y330D02*
Y470D01*
Y330D02*
X220Y230D01*
X-265Y-445D02*
X-197Y-513D01*
X-265Y-445D02*
Y120D01*
X-360Y20D02*
X-300D01*
X-425Y85D02*
X-360Y20D01*
X-2Y442D02*
X35Y405D01*
X70Y280D02*
Y375D01*
X80Y385D01*
Y478D01*
X135Y255D02*
X195Y195D01*
X35Y255D02*
X135D01*
X-200Y-118D02*
X-139Y-179D01*
X-110Y410D02*
Y485D01*
X-200Y285D02*
X-145Y340D01*
X-130D01*
X35Y255D02*
Y405D01*
X-230Y-410D02*
X-185Y-455D01*
X-230Y290D02*
X-110Y410D01*
X70Y-80D02*
X90Y-60D01*
Y140D01*
D45*
X-220Y590D02*
X-80D01*
X-260D02*
X-220D01*
X-5D02*
X25Y620D01*
X-80Y590D02*
X-5D01*
X-325Y525D02*
X-260Y590D01*
X-325Y495D02*
Y525D01*
X-654Y504D02*
X-590Y440D01*
X-921Y504D02*
X-654D01*
X1030Y615D02*
X1045D01*
X995Y650D02*
X1030Y615D01*
X880Y585D02*
X1070Y395D01*
X675Y585D02*
X880D01*
D46*
X80Y-565D02*
X100Y-585D01*
X245D01*
X55Y-495D02*
Y-420D01*
X60Y-215D02*
X110Y-265D01*
Y-365D02*
Y-265D01*
X55Y-420D02*
X110Y-365D01*
D50*
X-51Y0D02*
D03*
D51*
X-1100Y256D02*
D03*
Y-256D02*
D03*
D52*
X-990Y115D02*
D03*
Y-85D02*
D03*
Y15D02*
D03*
X-1090D02*
D03*
Y-85D02*
D03*
D53*
Y115D02*
D03*
D54*
X45Y35D02*
D03*
X-220Y590D02*
D03*
X-1160Y180D02*
D03*
Y-505D02*
D03*
Y-420D02*
D03*
X-678Y-514D02*
D03*
X-290Y-585D02*
D03*
X243Y268D02*
D03*
X410Y100D02*
D03*
X460Y270D02*
D03*
Y170D02*
D03*
X401Y134D02*
D03*
X402Y367D02*
D03*
X90Y140D02*
D03*
X40Y-135D02*
D03*
X-315Y145D02*
D03*
X-105Y-513D02*
D03*
X-32Y-609D02*
D03*
X190Y-660D02*
D03*
X80Y-565D02*
D03*
X55Y-495D02*
D03*
X20Y-520D02*
D03*
X245Y-585D02*
D03*
X545Y-570D02*
D03*
X570Y-620D02*
D03*
X840Y-585D02*
D03*
X965Y-660D02*
D03*
X1035Y-595D02*
D03*
Y-635D02*
D03*
Y-555D02*
D03*
X1180Y-675D02*
D03*
X60Y-215D02*
D03*
X150Y-635D02*
D03*
X75Y-335D02*
D03*
X-35Y-510D02*
D03*
X-545Y310D02*
D03*
X-430Y-155D02*
D03*
Y-65D02*
D03*
X25Y620D02*
D03*
X-80Y590D02*
D03*
X-232Y366D02*
D03*
X-217Y413D02*
D03*
X-176Y389D02*
D03*
X-435Y490D02*
D03*
X-325Y495D02*
D03*
X205Y535D02*
D03*
X200Y475D02*
D03*
X-869Y549D02*
D03*
X-600Y350D02*
D03*
Y660D02*
D03*
X-750D02*
D03*
X-840Y350D02*
D03*
X-720D02*
D03*
X-590Y440D02*
D03*
X-921Y504D02*
D03*
X-160Y-480D02*
D03*
X-50Y-410D02*
D03*
X-1160Y-340D02*
D03*
X-870Y-190D02*
D03*
X-570Y-140D02*
D03*
X-750Y100D02*
D03*
Y-100D02*
D03*
X-495Y-485D02*
D03*
X-195Y-290D02*
D03*
X-355Y-310D02*
D03*
X335Y390D02*
D03*
X780Y670D02*
D03*
X600Y660D02*
D03*
X500D02*
D03*
X400D02*
D03*
X300D02*
D03*
X200D02*
D03*
X950Y-350D02*
D03*
X850D02*
D03*
X750D02*
D03*
X650D02*
D03*
X550D02*
D03*
X450D02*
D03*
Y-260D02*
D03*
Y-160D02*
D03*
Y-60D02*
D03*
Y70D02*
D03*
X520Y310D02*
D03*
X620D02*
D03*
X720D02*
D03*
X810D02*
D03*
X900D02*
D03*
X1070D02*
D03*
X1150Y390D02*
D03*
X1160Y310D02*
D03*
Y210D02*
D03*
Y110D02*
D03*
Y10D02*
D03*
Y-90D02*
D03*
Y-190D02*
D03*
Y-290D02*
D03*
Y-390D02*
D03*
X890Y-660D02*
D03*
X790D02*
D03*
X690D02*
D03*
X590D02*
D03*
X490D02*
D03*
X390D02*
D03*
X290D02*
D03*
X80D02*
D03*
X-20D02*
D03*
X-150D02*
D03*
X-380D02*
D03*
X-290D02*
D03*
X-470D02*
D03*
X-660D02*
D03*
X-760D02*
D03*
X-860D02*
D03*
X-960D02*
D03*
X-1060D02*
D03*
X-1160D02*
D03*
Y350D02*
D03*
Y470D02*
D03*
Y590D02*
D03*
X-1030Y660D02*
D03*
X-1160D02*
D03*
X-930Y615D02*
D03*
X-605Y-480D02*
D03*
X871Y394D02*
D03*
X-140Y-290D02*
D03*
Y-180D02*
D03*
X675Y585D02*
D03*
X1070Y395D02*
D03*
X1045Y615D02*
D03*
X995Y650D02*
D03*
X242Y-268D02*
D03*
X-110Y-455D02*
D03*
X-750Y-200D02*
D03*
X-650Y-300D02*
D03*
X190Y440D02*
D03*
X260Y580D02*
D03*
X735Y-165D02*
D03*
X883Y-163D02*
D03*
X1046Y-264D02*
D03*
X580Y-200D02*
D03*
X990Y310D02*
D03*
X215Y-200D02*
D03*
X-165Y520D02*
D03*
X-110Y485D02*
D03*
X-25Y-435D02*
D03*
X70Y280D02*
D03*
X80Y478D02*
D03*
X120Y470D02*
D03*
X-265Y120D02*
D03*
X-300Y20D02*
D03*
X-425Y85D02*
D03*
X-2Y442D02*
D03*
X-130Y340D02*
D03*
X35Y255D02*
D03*
X195Y195D02*
D03*
X-175Y20D02*
D03*
X-210Y315D02*
D03*
X-130Y280D02*
D03*
X-380Y240D02*
D03*
X-231Y144D02*
D03*
M02*
