%FSLAX23Y23*%
%MOIN*%
G70*
G01*
G75*
G04 Layer_Physical_Order=1*
G04 Layer_Color=255*
%ADD10R,0.026X0.030*%
%ADD11R,0.030X0.026*%
%ADD12R,0.031X0.028*%
%ADD13R,0.039X0.031*%
%ADD14R,0.028X0.059*%
%ADD15R,0.012X0.020*%
%ADD16R,0.020X0.012*%
%ADD17R,0.051X0.022*%
%ADD18R,0.024X0.024*%
%ADD19R,0.118X0.039*%
%ADD20R,0.039X0.118*%
%ADD21R,0.010X0.020*%
%ADD22R,0.020X0.010*%
%ADD23R,0.010X0.013*%
%ADD24R,0.013X0.010*%
%ADD25O,0.065X0.012*%
%ADD26R,0.037X0.018*%
%ADD27R,0.035X0.031*%
%ADD28R,0.031X0.035*%
%ADD29R,0.063X0.224*%
%ADD30R,0.024X0.024*%
%ADD31R,0.035X0.026*%
%ADD32R,0.026X0.035*%
%ADD33R,0.033X0.059*%
%ADD34R,0.169X0.065*%
%ADD35R,0.053X0.094*%
%ADD36R,0.028X0.018*%
%ADD37R,0.063X0.098*%
%ADD38R,0.012X0.031*%
%ADD39R,0.031X0.012*%
%ADD40R,0.047X0.047*%
%ADD41R,0.051X0.016*%
%ADD42R,0.022X0.051*%
%ADD43C,0.010*%
%ADD44C,0.030*%
%ADD45C,0.015*%
%ADD46C,0.020*%
%ADD47C,0.040*%
%ADD48C,0.011*%
%ADD49C,0.008*%
%ADD50C,0.125*%
%ADD51C,0.118*%
%ADD52C,0.059*%
%ADD53R,0.059X0.059*%
%ADD54C,0.025*%
G36*
X340Y403D02*
X364D01*
X365Y403D01*
Y403D01*
X365Y403D01*
Y403D01*
X375Y405D01*
X375D01*
Y405D01*
X375Y405D01*
X389D01*
Y383D01*
X388Y382D01*
X383Y375D01*
X381Y367D01*
X383Y359D01*
X388Y353D01*
X394Y348D01*
X402Y346D01*
X410Y348D01*
X417Y353D01*
X422Y359D01*
X423Y367D01*
X422Y375D01*
X417Y382D01*
X416Y383D01*
Y405D01*
X430D01*
Y405D01*
X442D01*
Y405D01*
X456D01*
Y365D01*
X426Y334D01*
X228D01*
X223Y333D01*
X219Y330D01*
X207Y318D01*
X163D01*
X162Y320D01*
X159Y330D01*
X291Y463D01*
X294Y466D01*
X295Y466D01*
X306Y460D01*
Y403D01*
X330D01*
Y472D01*
X340D01*
Y403D01*
D02*
G37*
G36*
X753Y588D02*
X753Y576D01*
Y570D01*
X777D01*
Y560D01*
X753D01*
Y554D01*
X753Y542D01*
X742Y542D01*
Y472D01*
Y403D01*
X765D01*
X767Y403D01*
X767D01*
X778Y405D01*
X779D01*
X831D01*
X832Y405D01*
X837D01*
X843D01*
X850Y394D01*
X852Y386D01*
X856Y379D01*
X863Y375D01*
X871Y373D01*
X879Y375D01*
X886Y379D01*
X890Y386D01*
X892Y394D01*
X899Y405D01*
X910D01*
Y405D01*
X965D01*
X965Y405D01*
X965Y405D01*
X977D01*
Y405D01*
X977Y405D01*
X1032D01*
X1032Y405D01*
X1038D01*
X1044D01*
X1049Y395D01*
X1051Y387D01*
X1055Y380D01*
X1062Y376D01*
X1070Y374D01*
X1078Y376D01*
X1085Y380D01*
X1089Y387D01*
X1091Y395D01*
X1099Y405D01*
X1109Y403D01*
X1109D01*
X1111Y403D01*
X1134D01*
Y472D01*
X1144D01*
Y403D01*
X1168D01*
X1168Y403D01*
X1180Y403D01*
Y-403D01*
X1168Y-403D01*
X1168Y-403D01*
X1144D01*
Y-472D01*
X1134D01*
Y-403D01*
X1111D01*
X1109Y-403D01*
X1109D01*
X1107Y-404D01*
X1095Y-394D01*
Y-358D01*
X1093Y-349D01*
X1088Y-342D01*
X1060Y-313D01*
X1052Y-308D01*
X1043Y-307D01*
X1030D01*
X1029Y-306D01*
X1025Y-300D01*
X935Y-210D01*
X929Y-206D01*
X924Y-204D01*
X922Y-203D01*
X915Y-202D01*
X707D01*
X485Y20D01*
X479Y24D01*
X474Y26D01*
X472Y27D01*
X465Y28D01*
X396D01*
X389Y37D01*
Y62D01*
X320D01*
Y72D01*
X389D01*
Y75D01*
X401Y82D01*
X402Y81D01*
X410Y79D01*
X418Y81D01*
X425Y85D01*
X429Y92D01*
X431Y100D01*
X429Y108D01*
X425Y115D01*
X418Y119D01*
X420Y125D01*
X420Y126D01*
X422Y134D01*
X420Y142D01*
X416Y149D01*
X409Y153D01*
X403Y154D01*
X400Y161D01*
X398Y166D01*
X465Y233D01*
X470D01*
X475Y234D01*
X479Y237D01*
X499Y257D01*
X502Y262D01*
X503Y267D01*
X503Y267D01*
Y310D01*
X546Y352D01*
X548Y356D01*
X549Y361D01*
Y405D01*
X564D01*
Y405D01*
X575D01*
Y405D01*
X631D01*
Y405D01*
X631Y405D01*
X642D01*
Y405D01*
X642Y405D01*
X695D01*
X696D01*
X707Y403D01*
X707D01*
X709Y403D01*
X732D01*
Y472D01*
Y542D01*
X709D01*
X707Y542D01*
X707D01*
X696Y540D01*
X695D01*
X682D01*
X682Y540D01*
X679Y544D01*
X671Y553D01*
X673Y560D01*
X676Y564D01*
X683Y566D01*
X690Y570D01*
X694Y577D01*
X696Y585D01*
X698Y588D01*
X707Y588D01*
X741D01*
X753Y588D01*
D02*
G37*
G36*
X-192Y488D02*
X-195Y483D01*
X-348D01*
X-352Y488D01*
X-346Y500D01*
X-198D01*
X-192Y488D01*
D02*
G37*
G36*
X523Y367D02*
X481Y324D01*
X478Y320D01*
X477Y315D01*
Y272D01*
X464Y260D01*
X460D01*
X455Y259D01*
X450Y256D01*
X398Y203D01*
X387Y208D01*
Y228D01*
X387Y228D01*
Y234D01*
Y240D01*
X387Y240D01*
Y295D01*
X253D01*
Y295D01*
X243Y289D01*
X235Y287D01*
X228Y283D01*
X223Y276D01*
X222Y268D01*
X223Y260D01*
X228Y253D01*
X232Y250D01*
X229Y238D01*
X203D01*
X198Y237D01*
X194Y234D01*
X191Y230D01*
X190Y225D01*
Y215D01*
X187Y214D01*
X180Y210D01*
X176Y203D01*
X174Y195D01*
X165Y183D01*
X150D01*
X145Y182D01*
X141Y179D01*
X118Y157D01*
X118Y157D01*
X106Y155D01*
X104Y155D01*
X98Y159D01*
X90Y161D01*
X82Y159D01*
X75Y155D01*
X71Y148D01*
X69Y140D01*
X71Y133D01*
X71Y132D01*
X64Y121D01*
X60D01*
Y79D01*
X130D01*
X134Y68D01*
X126Y59D01*
X123Y55D01*
X122Y50D01*
Y15D01*
X113Y7D01*
X113Y7D01*
X95D01*
Y-17D01*
X90D01*
Y-22D01*
X67D01*
Y-42D01*
X69D01*
Y-85D01*
X77D01*
Y-110D01*
X67Y-119D01*
X55Y-120D01*
X48Y-116D01*
X40Y-114D01*
X38Y-114D01*
X26Y-114D01*
X26Y-114D01*
X26Y-114D01*
X-15D01*
X-16D01*
X-27Y-112D01*
X-27D01*
X-32Y-112D01*
X-48D01*
Y-135D01*
X-53D01*
Y-140D01*
X-78D01*
Y-159D01*
Y-170D01*
X-53D01*
Y-175D01*
X-48D01*
Y-198D01*
X-32D01*
X-27Y-198D01*
X-27D01*
X-16Y-196D01*
X-15D01*
X26D01*
Y-188D01*
X38D01*
X41Y-194D01*
X42Y-200D01*
X38Y-206D01*
X37Y-215D01*
Y-227D01*
X-184D01*
Y-211D01*
X-180D01*
Y-169D01*
X-270D01*
Y-172D01*
X-283D01*
Y-169D01*
X-285D01*
Y-147D01*
X-273D01*
Y-42D01*
X-261Y-37D01*
X-237Y-60D01*
Y-147D01*
X-168D01*
Y-37D01*
X-216D01*
X-247Y-5D01*
X-246Y1D01*
X-243Y7D01*
X-191D01*
X-190Y5D01*
X-183Y1D01*
X-175Y-1D01*
X-167Y1D01*
X-160Y5D01*
X-156Y12D01*
X-154Y20D01*
X-156Y28D01*
X-160Y35D01*
X-167Y39D01*
X-175Y41D01*
X-183Y39D01*
X-190Y35D01*
X-191Y33D01*
X-284D01*
X-285Y35D01*
X-292Y39D01*
X-300Y41D01*
X-305Y45D01*
Y64D01*
X-323D01*
Y104D01*
X-320Y107D01*
X-281D01*
X-280Y105D01*
X-273Y101D01*
X-265Y99D01*
X-257Y101D01*
X-250Y105D01*
X-246Y112D01*
X-245Y114D01*
X-242Y121D01*
X-232Y123D01*
X-231Y123D01*
X-224Y124D01*
X-217Y129D01*
X-212Y136D01*
X-211Y144D01*
X-212Y151D01*
X-217Y158D01*
X-224Y163D01*
X-231Y164D01*
X-239Y163D01*
X-246Y158D01*
X-247Y157D01*
X-298D01*
X-300Y160D01*
X-307Y164D01*
X-315Y166D01*
X-323Y164D01*
X-334Y171D01*
X-334Y179D01*
X-325Y189D01*
X-266D01*
X-263Y190D01*
X-261Y189D01*
X-151D01*
Y180D01*
X-109D01*
Y189D01*
X-97D01*
Y181D01*
X-30D01*
Y189D01*
X49D01*
Y180D01*
X91D01*
Y225D01*
Y270D01*
X91Y270D01*
X91D01*
X92Y282D01*
X100Y292D01*
X212D01*
X217Y293D01*
X222Y296D01*
X234Y308D01*
X431D01*
X436Y309D01*
X440Y312D01*
X479Y350D01*
X482Y354D01*
X483Y359D01*
Y405D01*
X497D01*
Y405D01*
X509D01*
Y405D01*
X523D01*
Y367D01*
D02*
G37*
G36*
X-165Y-276D02*
X-160Y-285D01*
X-161Y-290D01*
X-159Y-298D01*
X-158Y-300D01*
X-164Y-312D01*
X-165D01*
Y-314D01*
X-182D01*
Y-347D01*
X-211D01*
X-218Y-338D01*
Y-338D01*
X-218Y-333D01*
Y-321D01*
X-240D01*
Y-316D01*
X-245D01*
Y-295D01*
X-256D01*
X-262Y-295D01*
X-265D01*
X-268D01*
X-274Y-295D01*
X-285D01*
Y-316D01*
X-290D01*
Y-321D01*
X-312D01*
Y-333D01*
X-312Y-338D01*
Y-338D01*
X-312Y-339D01*
X-322Y-351D01*
X-360D01*
Y-347D01*
X-400D01*
X-400Y-347D01*
Y-347D01*
X-400Y-347D01*
X-400Y-347D01*
X-409Y-345D01*
X-409Y-345D01*
X-409Y-345D01*
Y-345D01*
X-411Y-345D01*
X-451D01*
Y-355D01*
X-463D01*
Y-338D01*
X-462D01*
Y-300D01*
X-462Y-298D01*
Y-273D01*
X-168D01*
X-165Y-276D01*
D02*
G37*
G36*
X-28Y-290D02*
X-36D01*
Y-335D01*
Y-347D01*
X-78D01*
Y-314D01*
X-95D01*
Y-312D01*
X-105D01*
Y-332D01*
Y-352D01*
X-100D01*
Y-373D01*
Y-393D01*
Y-408D01*
X-106D01*
Y-410D01*
X-160D01*
Y-393D01*
Y-373D01*
Y-352D01*
X-155D01*
Y-332D01*
X-145D01*
Y-352D01*
X-135D01*
Y-352D01*
X-125D01*
Y-352D01*
X-115D01*
Y-332D01*
Y-312D01*
X-117D01*
Y-300D01*
X-118Y-295D01*
X-120Y-292D01*
X-119Y-290D01*
X-120Y-285D01*
X-115Y-276D01*
X-112Y-273D01*
X-28D01*
Y-290D01*
D02*
G37*
G36*
X-104Y396D02*
X-104Y395D01*
X-106Y383D01*
X-106D01*
X-106Y383D01*
Y371D01*
X-112D01*
X-117Y370D01*
X-122Y367D01*
X-128Y361D01*
X-130Y361D01*
X-138Y359D01*
X-145Y355D01*
X-149Y348D01*
X-151Y340D01*
X-149Y332D01*
X-145Y325D01*
X-138Y321D01*
X-130Y319D01*
X-122Y321D01*
X-115Y325D01*
X-106Y332D01*
X-101Y332D01*
X-75D01*
X-59Y316D01*
X-55Y313D01*
X-50Y312D01*
X21D01*
X26Y302D01*
X26Y300D01*
X-10Y264D01*
X-30D01*
Y269D01*
X-97D01*
Y269D01*
X-98Y269D01*
X-109Y280D01*
X-109Y280D01*
Y280D01*
X-109Y281D01*
X-111Y288D01*
X-112Y291D01*
X-115Y295D01*
X-122Y299D01*
X-130Y301D01*
X-138Y299D01*
X-145Y295D01*
X-148Y291D01*
X-149Y288D01*
X-151Y281D01*
X-151Y280D01*
Y280D01*
X-151Y268D01*
Y225D01*
Y216D01*
X-261D01*
X-263Y215D01*
X-266Y216D01*
X-330D01*
X-335Y215D01*
X-339Y212D01*
X-347Y204D01*
X-358Y209D01*
Y210D01*
X-375D01*
Y189D01*
X-380D01*
Y184D01*
X-402D01*
Y167D01*
X-402D01*
X-411Y160D01*
X-462D01*
Y338D01*
X-456Y348D01*
X-404D01*
X-404Y348D01*
D01*
X-404Y348D01*
X-395Y347D01*
X-395Y347D01*
Y347D01*
Y347D01*
X-393Y347D01*
X-362D01*
X-361Y344D01*
X-358Y340D01*
X-338Y320D01*
X-334Y317D01*
X-329Y316D01*
X-313D01*
X-308Y317D01*
X-303Y320D01*
X-297Y327D01*
X-290Y331D01*
X-280Y327D01*
X-254Y301D01*
X-250Y298D01*
X-245Y297D01*
X-220D01*
X-218Y296D01*
X-210Y294D01*
X-202Y296D01*
X-195Y300D01*
X-191Y307D01*
X-189Y315D01*
X-191Y323D01*
X-195Y330D01*
X-202Y334D01*
X-210Y336D01*
X-218Y334D01*
X-225Y330D01*
X-228Y325D01*
X-240Y324D01*
X-254Y338D01*
X-249Y350D01*
X-235D01*
Y361D01*
X-255D01*
Y371D01*
X-235D01*
Y376D01*
X-191D01*
X-190Y375D01*
X-184Y370D01*
X-176Y369D01*
X-168Y370D01*
X-161Y375D01*
X-156Y381D01*
X-155Y389D01*
X-156Y397D01*
X-161Y404D01*
X-168Y409D01*
X-176Y410D01*
X-184Y409D01*
X-185Y408D01*
X-191Y411D01*
X-196Y415D01*
X-198Y421D01*
X-200Y425D01*
X-196Y435D01*
X-195Y437D01*
X-145D01*
X-104Y396D01*
D02*
G37*
G36*
X-1020Y-310D02*
X-1020Y-310D01*
X-1020Y-310D01*
Y-590D01*
X-863D01*
X-860Y-592D01*
X-855Y-593D01*
X-730D01*
X-725Y-592D01*
X-722Y-590D01*
X-720D01*
Y-589D01*
X-716Y-584D01*
X-713Y-580D01*
X-712Y-575D01*
Y-459D01*
X-700Y-457D01*
X-698Y-459D01*
X-694Y-462D01*
X-688Y-464D01*
X-635D01*
X-633Y-463D01*
X-625Y-471D01*
X-625Y-471D01*
X-624Y-473D01*
X-626Y-480D01*
X-624Y-488D01*
X-620Y-495D01*
X-613Y-499D01*
X-607Y-501D01*
X-603Y-504D01*
X-598Y-512D01*
Y-515D01*
X-604Y-525D01*
X-646D01*
Y-568D01*
X-648D01*
Y-588D01*
X-625D01*
Y-598D01*
X-648D01*
Y-601D01*
X-655Y-612D01*
X-1110D01*
X-1117Y-605D01*
Y-333D01*
X-1116Y-332D01*
X-1106Y-323D01*
X-1105Y-323D01*
X-1100Y-323D01*
X-1087Y-322D01*
X-1074Y-318D01*
X-1063Y-312D01*
X-1052Y-304D01*
X-1048Y-298D01*
X-1021D01*
X-1020Y-310D01*
D02*
G37*
G36*
X-430Y510D02*
X-422D01*
X-416Y510D01*
X-415Y509D01*
X-410Y500D01*
X-410D01*
X-409D01*
X-406Y499D01*
X-397Y495D01*
Y494D01*
X-396Y489D01*
X-393Y485D01*
X-369Y461D01*
X-365Y458D01*
X-360Y457D01*
X-318D01*
X-316Y453D01*
X-315Y442D01*
X-320Y432D01*
X-323Y429D01*
X-341D01*
X-343Y429D01*
X-353Y434D01*
Y435D01*
X-370D01*
Y414D01*
X-380D01*
Y435D01*
X-390D01*
X-397Y435D01*
X-397Y436D01*
X-430D01*
Y441D01*
X-435D01*
Y464D01*
X-450D01*
X-458Y464D01*
X-462Y475D01*
D01*
Y500D01*
X-457Y510D01*
X-450Y510D01*
X-440D01*
Y531D01*
X-430D01*
Y510D01*
D02*
G37*
G36*
X-899Y606D02*
X-871Y579D01*
X-866Y575D01*
X-860Y574D01*
X-853D01*
Y554D01*
X-824D01*
Y544D01*
X-853D01*
Y523D01*
X-826D01*
X-821Y511D01*
X-831Y501D01*
X-835Y496D01*
X-836Y490D01*
Y468D01*
X-841D01*
Y466D01*
X-858D01*
X-867Y464D01*
X-874Y459D01*
X-902Y432D01*
X-907Y424D01*
X-908Y415D01*
Y385D01*
X-919Y378D01*
X-923Y379D01*
X-994Y450D01*
Y476D01*
X-993Y488D01*
X-940D01*
X-940Y488D01*
Y488D01*
X-940Y488D01*
X-929Y485D01*
X-929Y485D01*
X-921Y484D01*
X-913Y485D01*
X-906Y490D01*
X-901Y496D01*
X-900Y504D01*
X-901Y512D01*
X-906Y519D01*
X-913Y524D01*
X-921Y525D01*
X-929Y524D01*
X-929Y524D01*
X-940Y521D01*
X-940Y521D01*
X-940Y521D01*
X-957D01*
X-963Y533D01*
X-958Y539D01*
X-940D01*
Y572D01*
X-951D01*
Y590D01*
X-948Y591D01*
X-939Y595D01*
X-936Y595D01*
X-930Y594D01*
X-928Y595D01*
X-927Y595D01*
X-925Y595D01*
X-922Y596D01*
X-917Y599D01*
X-915Y600D01*
X-913Y604D01*
X-902Y606D01*
X-899Y606D01*
D02*
G37*
G36*
X675Y-250D02*
X681Y-254D01*
X686Y-256D01*
X688Y-257D01*
X695Y-258D01*
X903D01*
X976Y-331D01*
Y-396D01*
X967Y-403D01*
X964Y-403D01*
X943D01*
Y-472D01*
X933D01*
Y-403D01*
X913D01*
X908Y-403D01*
X904D01*
X901D01*
X896Y-403D01*
X876D01*
Y-472D01*
Y-541D01*
X896D01*
X901Y-541D01*
X904D01*
X908D01*
X915Y-551D01*
Y-553D01*
Y-560D01*
X936D01*
Y-570D01*
X915D01*
Y-576D01*
X915Y-587D01*
Y-587D01*
Y-588D01*
X915Y-599D01*
Y-605D01*
X936D01*
Y-610D01*
X941D01*
Y-632D01*
X953D01*
X958Y-632D01*
X958D01*
X969Y-630D01*
X970D01*
X1003D01*
X1010Y-631D01*
X1014Y-635D01*
X1014Y-636D01*
X1016Y-643D01*
X1020Y-650D01*
X1027Y-654D01*
X1035Y-656D01*
X1043Y-654D01*
X1050Y-650D01*
X1054Y-644D01*
X1076Y-638D01*
X1169D01*
X1173Y-650D01*
X1170Y-653D01*
X1158Y-655D01*
Y-655D01*
X1158Y-655D01*
X1131D01*
X1119Y-655D01*
X1119Y-655D01*
X1119Y-655D01*
X1113Y-653D01*
X1113Y-653D01*
Y-653D01*
X1108Y-653D01*
X1096D01*
Y-675D01*
X1091D01*
Y-680D01*
X-1180D01*
Y-311D01*
X-1168Y-306D01*
X-1143Y-330D01*
Y-610D01*
X-1142Y-615D01*
X-1139Y-619D01*
X-1124Y-634D01*
X-1120Y-637D01*
X-1115Y-638D01*
X-660D01*
X-644Y-654D01*
X-640Y-657D01*
X-635Y-658D01*
X-495D01*
X-490Y-657D01*
X-486Y-654D01*
X-480Y-648D01*
X134D01*
X135Y-650D01*
X142Y-654D01*
X150Y-656D01*
X158Y-654D01*
X165Y-650D01*
X169Y-643D01*
X171Y-635D01*
X172Y-633D01*
X554D01*
X555Y-635D01*
X562Y-639D01*
X570Y-641D01*
X578Y-639D01*
X585Y-635D01*
X586Y-633D01*
X635D01*
Y-641D01*
X725D01*
Y-599D01*
X737Y-598D01*
X824D01*
X825Y-600D01*
X832Y-604D01*
X840Y-606D01*
X848Y-604D01*
X855Y-600D01*
X859Y-593D01*
X861Y-585D01*
X859Y-577D01*
X855Y-570D01*
X848Y-566D01*
X840Y-564D01*
X832Y-566D01*
X825Y-570D01*
X824Y-572D01*
X720D01*
X715Y-573D01*
X711Y-576D01*
X693Y-593D01*
X690Y-597D01*
X690Y-599D01*
X635D01*
Y-607D01*
X586D01*
X585Y-605D01*
X578Y-601D01*
X570Y-599D01*
X562Y-601D01*
X555Y-605D01*
X554Y-607D01*
X269D01*
X263Y-595D01*
X264Y-593D01*
X266Y-585D01*
X264Y-577D01*
X266Y-565D01*
X266D01*
Y-546D01*
X269Y-544D01*
X278Y-542D01*
X316Y-579D01*
X320Y-582D01*
X325Y-583D01*
X529D01*
X530Y-585D01*
X537Y-589D01*
X545Y-591D01*
X553Y-589D01*
X560Y-585D01*
X564Y-578D01*
X566Y-570D01*
X564Y-562D01*
X560Y-555D01*
X557Y-553D01*
X561Y-541D01*
X561D01*
X566Y-541D01*
X570D01*
X573D01*
X578Y-541D01*
X598D01*
Y-472D01*
Y-403D01*
X578D01*
X573Y-403D01*
X570D01*
X566D01*
X561Y-403D01*
X541D01*
Y-472D01*
X531D01*
Y-403D01*
X511D01*
X507Y-403D01*
X503D01*
X499D01*
X495Y-403D01*
X474D01*
Y-472D01*
Y-541D01*
X495D01*
X499Y-541D01*
X503D01*
X507D01*
X511Y-541D01*
X518D01*
X524Y-553D01*
X521Y-557D01*
X338D01*
X335Y-553D01*
X341Y-541D01*
X361D01*
X365Y-541D01*
X369D01*
X373D01*
X377Y-541D01*
X397D01*
Y-472D01*
Y-403D01*
X377D01*
X373Y-403D01*
X369D01*
X365D01*
X361Y-403D01*
X340D01*
Y-472D01*
X330D01*
Y-403D01*
X306D01*
X298Y-394D01*
Y-360D01*
X297Y-355D01*
X294Y-351D01*
X256Y-312D01*
Y-295D01*
X387D01*
Y-240D01*
X387Y-240D01*
Y-234D01*
Y-228D01*
X387Y-228D01*
Y-173D01*
X387D01*
Y-162D01*
X387D01*
Y-106D01*
X387Y-106D01*
Y-106D01*
Y-96D01*
X387Y-95D01*
X387Y-94D01*
X387Y-94D01*
D01*
Y-94D01*
X387D01*
Y-39D01*
X387Y-39D01*
X387D01*
X387Y-39D01*
X389Y-28D01*
X453D01*
X675Y-250D01*
D02*
G37*
G36*
X-351Y-13D02*
X-341D01*
X-335Y-19D01*
X-335Y-21D01*
X-332Y-25D01*
X-334Y-31D01*
X-337Y-37D01*
X-342D01*
Y-147D01*
X-322D01*
Y-169D01*
X-324D01*
Y-221D01*
X-334Y-227D01*
X-343D01*
X-354Y-223D01*
X-354Y-215D01*
Y-200D01*
X-399D01*
Y-215D01*
X-399Y-223D01*
X-410Y-227D01*
D01*
X-462D01*
Y-33D01*
X-380D01*
X-375Y-32D01*
X-371Y-29D01*
X-366Y-25D01*
X-364Y-21D01*
X-363Y-16D01*
Y-13D01*
X-361D01*
Y13D01*
X-351D01*
Y-13D01*
D02*
G37*
G36*
X976Y668D02*
X974Y666D01*
X927D01*
X921Y665D01*
X916Y661D01*
X890Y635D01*
X869D01*
Y590D01*
Y545D01*
X859Y540D01*
X855D01*
X845Y544D01*
X845Y548D01*
Y552D01*
Y586D01*
X853Y588D01*
X853D01*
Y652D01*
X790D01*
Y595D01*
X780Y589D01*
X770Y595D01*
Y600D01*
Y652D01*
X707D01*
Y636D01*
X690D01*
X684Y635D01*
X679Y631D01*
X664Y616D01*
X660Y611D01*
X659Y605D01*
Y598D01*
X656Y593D01*
X654Y585D01*
X651Y583D01*
X643Y578D01*
X640Y578D01*
X311D01*
X306Y577D01*
X302Y574D01*
X262Y535D01*
X258Y535D01*
X225Y569D01*
X221Y571D01*
X216Y572D01*
X200D01*
Y680D01*
X971D01*
X976Y668D01*
D02*
G37*
G36*
X-469Y669D02*
X-495Y644D01*
X-507Y649D01*
Y657D01*
X-531D01*
Y631D01*
Y606D01*
X-508D01*
Y574D01*
X-531D01*
Y549D01*
Y523D01*
X-508D01*
Y236D01*
X-524D01*
Y245D01*
Y278D01*
X-524Y290D01*
X-524Y290D01*
X-526Y302D01*
Y302D01*
X-526Y302D01*
X-526Y302D01*
X-524Y310D01*
X-526Y318D01*
X-530Y325D01*
X-537Y329D01*
X-545Y331D01*
X-553Y329D01*
X-560Y325D01*
X-564Y318D01*
X-566Y310D01*
X-564Y302D01*
X-564Y302D01*
X-564Y302D01*
X-566Y290D01*
Y290D01*
X-567Y288D01*
X-579Y290D01*
Y290D01*
X-621D01*
Y247D01*
X-623D01*
Y227D01*
X-600D01*
Y222D01*
X-595D01*
Y198D01*
X-577D01*
Y198D01*
X-566Y200D01*
Y200D01*
X-524D01*
Y209D01*
X-508D01*
Y52D01*
X-587D01*
Y10D01*
Y-32D01*
X-508D01*
Y-182D01*
X-511D01*
Y-258D01*
X-511D01*
Y-262D01*
X-511D01*
Y-338D01*
X-510D01*
Y-356D01*
X-525D01*
X-530Y-358D01*
X-535Y-361D01*
X-538Y-365D01*
X-539Y-371D01*
X-538Y-376D01*
X-536Y-379D01*
X-536Y-379D01*
X-540Y-384D01*
X-540Y-385D01*
X-504D01*
X-498Y-386D01*
Y-395D01*
X-540D01*
X-540Y-397D01*
X-536Y-402D01*
X-536Y-402D01*
X-538Y-405D01*
X-539Y-410D01*
X-538Y-415D01*
X-536Y-418D01*
X-536Y-418D01*
X-540Y-423D01*
X-540Y-425D01*
X-498D01*
Y-435D01*
X-540D01*
X-540Y-436D01*
X-537Y-440D01*
X-540Y-443D01*
X-540Y-444D01*
X-498D01*
Y-449D01*
X-493D01*
Y-466D01*
X-472D01*
X-466Y-464D01*
X-463Y-463D01*
X-454Y-466D01*
X-451Y-468D01*
Y-490D01*
Y-515D01*
X-482Y-546D01*
X-513D01*
Y-594D01*
X-462D01*
Y-563D01*
X-434Y-535D01*
X-409D01*
Y-490D01*
Y-445D01*
X-409D01*
Y-440D01*
X-398Y-433D01*
X-360D01*
Y-394D01*
X-360Y-394D01*
X-359Y-382D01*
X-310D01*
Y-383D01*
X-270D01*
Y-383D01*
X-270Y-383D01*
X-260D01*
Y-383D01*
X-260Y-383D01*
X-220D01*
X-218Y-395D01*
Y-410D01*
X-217Y-415D01*
X-214Y-419D01*
X-196Y-438D01*
X-192Y-440D01*
X-187Y-441D01*
X-182D01*
Y-446D01*
X-141D01*
X-131Y-455D01*
X-129Y-463D01*
X-125Y-470D01*
X-118Y-474D01*
X-110Y-476D01*
X-102Y-474D01*
X-95Y-470D01*
X-94Y-470D01*
X-56Y-508D01*
X-56Y-510D01*
X-54Y-518D01*
X-50Y-525D01*
X-43Y-529D01*
X-35Y-531D01*
X-27Y-529D01*
X-20Y-525D01*
X-16Y-518D01*
X-14Y-510D01*
X-16Y-502D01*
X-20Y-495D01*
X-27Y-491D01*
X-35Y-489D01*
X-37Y-489D01*
X-69Y-457D01*
X-76Y-448D01*
X-76D01*
X-76Y-448D01*
Y-430D01*
X-69Y-427D01*
X-64Y-425D01*
X-58Y-429D01*
X-50Y-431D01*
X-42Y-429D01*
X-35Y-425D01*
X-34Y-423D01*
X-15D01*
X-10Y-422D01*
X-6Y-419D01*
X-3Y-417D01*
X9Y-422D01*
Y-460D01*
X51D01*
Y-451D01*
X69D01*
Y-460D01*
X111D01*
Y-456D01*
X123Y-453D01*
X125Y-455D01*
X124Y-469D01*
X120Y-473D01*
X106D01*
Y-487D01*
X103Y-488D01*
X75D01*
X74Y-487D01*
X70Y-480D01*
X63Y-476D01*
X55Y-474D01*
X47Y-476D01*
X40Y-480D01*
X36Y-487D01*
X34Y-495D01*
X36Y-503D01*
X40Y-510D01*
X47Y-514D01*
X49Y-515D01*
X54Y-520D01*
X54Y-520D01*
X62Y-528D01*
Y-556D01*
X61Y-557D01*
X59Y-565D01*
X61Y-573D01*
X65Y-580D01*
X72Y-584D01*
X80Y-586D01*
X88Y-584D01*
X95Y-580D01*
X99Y-573D01*
X101Y-565D01*
X99Y-557D01*
X98Y-556D01*
Y-549D01*
X106Y-540D01*
X131D01*
Y-607D01*
X137D01*
Y-615D01*
Y-619D01*
X135Y-620D01*
X134Y-622D01*
X-2D01*
X-11Y-610D01*
X-11Y-609D01*
X-12Y-601D01*
X-17Y-594D01*
X-18Y-593D01*
Y-586D01*
X-19Y-581D01*
X-22Y-577D01*
X-84Y-515D01*
X-84Y-513D01*
X-86Y-505D01*
X-90Y-498D01*
X-97Y-494D01*
X-105Y-492D01*
X-113Y-494D01*
X-120Y-498D01*
X-124Y-505D01*
X-126Y-513D01*
X-124Y-521D01*
X-120Y-528D01*
X-113Y-532D01*
X-105Y-534D01*
X-103Y-534D01*
X-53Y-584D01*
X-46Y-594D01*
X-51Y-601D01*
X-52Y-609D01*
X-52Y-610D01*
X-61Y-622D01*
X-485D01*
X-490Y-623D01*
X-494Y-626D01*
X-500Y-632D01*
X-545D01*
Y-612D01*
X-572D01*
Y-607D01*
X-577D01*
Y-582D01*
X-600D01*
X-602Y-571D01*
Y-568D01*
X-593Y-561D01*
X-587D01*
X-582Y-560D01*
X-578Y-557D01*
X-577Y-556D01*
X-547D01*
Y-509D01*
X-559D01*
Y-473D01*
X-560Y-468D01*
X-563Y-463D01*
X-576Y-451D01*
X-606Y-420D01*
X-610Y-417D01*
X-615Y-416D01*
X-621Y-410D01*
X-622Y-405D01*
X-625Y-400D01*
X-622Y-396D01*
X-621Y-390D01*
X-622Y-385D01*
X-624Y-382D01*
X-624Y-382D01*
X-620Y-377D01*
X-620Y-376D01*
X-662D01*
Y-371D01*
X-667D01*
Y-354D01*
X-688D01*
X-694Y-356D01*
X-700Y-359D01*
X-701Y-361D01*
X-712Y-365D01*
X-716Y-365D01*
X-720Y-361D01*
Y-310D01*
X-833D01*
X-845Y-310D01*
X-845Y-298D01*
Y-275D01*
X-898D01*
Y-298D01*
X-898Y-310D01*
X-910Y-310D01*
X-913D01*
X-924Y-308D01*
Y-232D01*
X-947D01*
X-951Y-221D01*
X-808Y-78D01*
X-804Y-72D01*
X-802Y-67D01*
X-801Y-65D01*
X-800Y-58D01*
Y-30D01*
X-735D01*
Y50D01*
X-810D01*
Y55D01*
X-811Y62D01*
X-812Y64D01*
X-815Y68D01*
X-914Y168D01*
Y199D01*
X-865D01*
Y241D01*
X-874D01*
Y254D01*
X-861D01*
Y301D01*
X-912D01*
X-914Y312D01*
Y318D01*
X-912Y329D01*
X-861D01*
Y376D01*
X-862D01*
Y405D01*
X-852Y415D01*
X-841Y417D01*
X-841Y417D01*
X-841Y417D01*
X-794D01*
Y468D01*
X-794D01*
X-797Y480D01*
X-792Y484D01*
X-790Y484D01*
Y484D01*
X-747D01*
Y540D01*
X-735Y552D01*
X-732D01*
X-731Y551D01*
Y484D01*
X-723D01*
Y468D01*
X-766D01*
Y417D01*
X-719D01*
Y427D01*
X-695D01*
Y419D01*
X-605D01*
X-605Y419D01*
X-593Y420D01*
X-590Y419D01*
X-582Y421D01*
X-575Y425D01*
X-571Y432D01*
X-569Y440D01*
X-571Y448D01*
X-574Y453D01*
Y484D01*
X-570D01*
Y512D01*
X-566Y523D01*
X-558Y523D01*
X-541D01*
Y549D01*
Y574D01*
X-566D01*
Y569D01*
X-570Y559D01*
X-578Y559D01*
X-597D01*
X-601Y569D01*
X-601Y571D01*
X-597Y576D01*
X-594Y583D01*
X-593Y590D01*
X-594Y597D01*
X-597Y604D01*
X-601Y610D01*
X-607Y614D01*
X-614Y617D01*
X-621Y618D01*
X-628Y617D01*
X-635Y614D01*
X-641Y610D01*
X-645Y604D01*
X-648Y597D01*
X-649Y590D01*
X-648Y583D01*
X-645Y576D01*
X-641Y570D01*
X-635Y566D01*
X-628Y563D01*
X-624Y562D01*
X-620Y561D01*
X-613Y551D01*
Y484D01*
X-606D01*
Y469D01*
X-614Y461D01*
X-694D01*
X-696Y473D01*
X-695Y484D01*
X-688D01*
Y559D01*
X-715D01*
X-719Y569D01*
X-719Y571D01*
X-715Y576D01*
X-712Y583D01*
X-711Y590D01*
X-712Y597D01*
X-715Y604D01*
X-719Y610D01*
X-725Y614D01*
X-732Y617D01*
X-739Y618D01*
X-746Y617D01*
X-753Y614D01*
X-759Y610D01*
X-763Y604D01*
X-764Y603D01*
X-777Y600D01*
X-777Y600D01*
X-779Y601D01*
X-784Y605D01*
X-790Y606D01*
X-794D01*
Y626D01*
X-853D01*
Y623D01*
X-865Y618D01*
X-904Y656D01*
X-909Y660D01*
X-915Y661D01*
X-988D01*
X-994Y660D01*
X-999Y656D01*
X-1016Y640D01*
X-1033D01*
X-1033Y640D01*
D01*
X-1033Y640D01*
X-1040Y641D01*
Y641D01*
X-1040Y641D01*
Y641D01*
X-1045Y641D01*
X-1130D01*
Y599D01*
X-1123D01*
Y575D01*
X-1131D01*
Y530D01*
Y485D01*
X-1123D01*
Y465D01*
X-1131D01*
Y420D01*
Y375D01*
X-1089D01*
Y382D01*
X-1053D01*
X-1047Y383D01*
X-1041Y386D01*
X-1018Y410D01*
X-1006Y410D01*
X-951Y355D01*
Y339D01*
X-997D01*
Y338D01*
X-1020D01*
X-1029Y337D01*
X-1037Y332D01*
X-1037Y332D01*
X-1059Y309D01*
X-1063Y312D01*
X-1074Y318D01*
X-1087Y322D01*
X-1100Y323D01*
X-1113Y322D01*
X-1126Y318D01*
X-1137Y312D01*
X-1148Y304D01*
X-1156Y293D01*
X-1162Y282D01*
X-1166Y269D01*
X-1167Y256D01*
X-1166Y243D01*
X-1162Y230D01*
X-1156Y218D01*
X-1148Y208D01*
X-1137Y200D01*
X-1126Y194D01*
X-1113Y190D01*
X-1100Y189D01*
X-1087Y190D01*
X-1074Y194D01*
X-1063Y200D01*
X-1052Y208D01*
X-1044Y218D01*
X-1038Y230D01*
X-1034Y243D01*
X-1033Y256D01*
X-1034Y268D01*
X-1010Y292D01*
X-997D01*
Y291D01*
X-951D01*
Y241D01*
X-955D01*
Y199D01*
X-951D01*
Y160D01*
X-950Y154D01*
X-950Y153D01*
X-946Y147D01*
X-860Y62D01*
X-865Y50D01*
X-921D01*
Y-30D01*
X-856D01*
Y-46D01*
X-1030Y-220D01*
X-1044Y-219D01*
X-1045Y-218D01*
X-1052Y-208D01*
X-1063Y-200D01*
X-1074Y-194D01*
X-1087Y-190D01*
X-1100Y-189D01*
X-1113Y-190D01*
X-1126Y-194D01*
X-1137Y-200D01*
X-1142Y-204D01*
X-1154Y-200D01*
X-1154Y-200D01*
X-1154Y-190D01*
X-1131Y-166D01*
X-1128Y-162D01*
X-1127Y-157D01*
Y-121D01*
X-1126Y-120D01*
X-1115Y-116D01*
X-1110Y-120D01*
X-1100Y-124D01*
X-1095Y-124D01*
Y-85D01*
Y-46D01*
X-1100Y-46D01*
X-1110Y-50D01*
X-1115Y-54D01*
X-1126Y-50D01*
X-1127Y-49D01*
Y-18D01*
X-1122Y-15D01*
X-1115Y-13D01*
X-1109Y-18D01*
X-1100Y-22D01*
X-1090Y-23D01*
X-1080Y-22D01*
X-1071Y-18D01*
X-1063Y-12D01*
X-1057Y-4D01*
X-1053Y5D01*
X-1052Y15D01*
X-1053Y25D01*
X-1057Y34D01*
X-1063Y42D01*
X-1071Y48D01*
X-1080Y52D01*
X-1090Y53D01*
X-1100Y52D01*
X-1109Y48D01*
X-1115Y43D01*
X-1122Y45D01*
X-1126Y48D01*
X-1127Y60D01*
X-1109Y77D01*
X-1052D01*
Y153D01*
X-1128D01*
Y96D01*
X-1149Y74D01*
X-1152Y70D01*
X-1153Y65D01*
Y-151D01*
X-1168Y-166D01*
X-1180Y-161D01*
Y680D01*
X-474D01*
X-469Y669D01*
D02*
G37*
G36*
X1180Y676D02*
Y542D01*
X1168Y542D01*
X1168Y542D01*
X1154D01*
X1142Y542D01*
X1142Y554D01*
Y560D01*
X1118D01*
Y570D01*
X1142D01*
Y580D01*
X1142Y588D01*
X1153Y592D01*
X1153Y592D01*
X1158D01*
Y610D01*
X1133D01*
Y620D01*
X1158D01*
Y631D01*
Y650D01*
X1133D01*
Y660D01*
X1158D01*
Y668D01*
X1158Y674D01*
X1170Y679D01*
X1180Y676D01*
D02*
G37*
%LPC*%
G36*
X-568Y-180D02*
X-590D01*
Y-215D01*
X-568D01*
Y-180D01*
D02*
G37*
G36*
X-537Y-305D02*
X-558D01*
Y-340D01*
X-537D01*
Y-305D01*
D02*
G37*
G36*
Y-180D02*
X-558D01*
Y-215D01*
X-537D01*
Y-180D01*
D02*
G37*
G36*
X-295Y-295D02*
X-312D01*
Y-311D01*
X-295D01*
Y-295D01*
D02*
G37*
G36*
X-877Y-230D02*
X-898D01*
Y-265D01*
X-877D01*
Y-230D01*
D02*
G37*
G36*
X-845D02*
X-867D01*
Y-265D01*
X-845D01*
Y-230D01*
D02*
G37*
G36*
X-235Y-295D02*
Y-311D01*
X-218D01*
Y-295D01*
X-235D01*
D02*
G37*
G36*
X-537Y-225D02*
X-590D01*
Y-248D01*
X-590Y-260D01*
Y-260D01*
Y-260D01*
X-590Y-272D01*
Y-295D01*
X-537D01*
Y-272D01*
X-537Y-260D01*
Y-260D01*
Y-260D01*
X-537Y-248D01*
Y-225D01*
D02*
G37*
G36*
X-568Y-305D02*
X-590D01*
Y-340D01*
X-568D01*
Y-305D01*
D02*
G37*
G36*
X-503Y-454D02*
X-540D01*
X-540Y-456D01*
X-536Y-461D01*
X-531Y-464D01*
X-525Y-466D01*
X-503D01*
Y-454D01*
D02*
G37*
G36*
X440Y-403D02*
X436D01*
X432D01*
X428Y-403D01*
X407D01*
Y-472D01*
Y-541D01*
X428D01*
X432Y-541D01*
X436D01*
X440D01*
X444Y-541D01*
X464D01*
Y-472D01*
Y-403D01*
X444D01*
X440Y-403D01*
D02*
G37*
G36*
X-567Y-582D02*
Y-602D01*
X-545D01*
Y-582D01*
X-567D01*
D02*
G37*
G36*
X1086Y-653D02*
X1070D01*
Y-670D01*
X1086D01*
Y-653D01*
D02*
G37*
G36*
X931Y-615D02*
X915D01*
Y-632D01*
X931D01*
Y-615D01*
D02*
G37*
G36*
X841Y-403D02*
X837D01*
X834D01*
X829Y-403D01*
X809D01*
Y-472D01*
Y-541D01*
X829D01*
X834Y-541D01*
X837D01*
X841D01*
X846Y-541D01*
X866D01*
Y-472D01*
Y-403D01*
X846D01*
X841Y-403D01*
D02*
G37*
G36*
X-635Y-354D02*
X-657D01*
Y-366D01*
X-620D01*
X-620Y-364D01*
X-624Y-359D01*
X-629Y-356D01*
X-635Y-354D01*
D02*
G37*
G36*
X774Y-403D02*
X770D01*
X767D01*
X762Y-403D01*
X742D01*
Y-472D01*
Y-541D01*
X762D01*
X767Y-541D01*
X770D01*
X774D01*
X779Y-541D01*
X799D01*
Y-472D01*
Y-403D01*
X779D01*
X774Y-403D01*
D02*
G37*
G36*
X640D02*
X637D01*
X633D01*
X628Y-403D01*
X608D01*
Y-472D01*
Y-541D01*
X628D01*
X633Y-541D01*
X637D01*
X640D01*
X645Y-541D01*
X665D01*
Y-472D01*
Y-403D01*
X645D01*
X640Y-403D01*
D02*
G37*
G36*
X707D02*
X704D01*
X700D01*
X695Y-403D01*
X675D01*
Y-472D01*
Y-541D01*
X695D01*
X700Y-541D01*
X704D01*
X707D01*
X712Y-541D01*
X732D01*
Y-472D01*
Y-403D01*
X712D01*
X707Y-403D01*
D02*
G37*
G36*
X-140Y-159D02*
X-148Y-161D01*
X-155Y-165D01*
X-159Y-172D01*
X-161Y-180D01*
X-159Y-188D01*
X-155Y-195D01*
X-148Y-199D01*
X-140Y-201D01*
X-132Y-199D01*
X-125Y-195D01*
X-121Y-188D01*
X-119Y-180D01*
X-121Y-172D01*
X-125Y-165D01*
X-132Y-161D01*
X-140Y-159D01*
D02*
G37*
G36*
X-785Y353D02*
X-806D01*
Y330D01*
X-785D01*
Y353D01*
D02*
G37*
G36*
X-754D02*
X-775D01*
Y330D01*
X-754D01*
Y353D01*
D02*
G37*
G36*
X-785Y385D02*
X-806D01*
Y363D01*
X-785D01*
Y385D01*
D02*
G37*
G36*
X-990Y153D02*
X-1000Y152D01*
X-1009Y148D01*
X-1017Y142D01*
X-1023Y134D01*
X-1027Y125D01*
X-1028Y115D01*
X-1027Y105D01*
X-1023Y96D01*
X-1017Y88D01*
X-1009Y82D01*
X-1000Y78D01*
X-990Y77D01*
X-980Y78D01*
X-971Y82D01*
X-963Y88D01*
X-957Y96D01*
X-953Y105D01*
X-952Y115D01*
X-953Y125D01*
X-957Y134D01*
X-963Y142D01*
X-971Y148D01*
X-980Y152D01*
X-990Y153D01*
D02*
G37*
G36*
X-385Y210D02*
X-402D01*
Y194D01*
X-385D01*
Y210D01*
D02*
G37*
G36*
X-605Y217D02*
X-623D01*
Y198D01*
X-605D01*
Y217D01*
D02*
G37*
G36*
X-829Y657D02*
X-853D01*
Y636D01*
X-829D01*
Y657D01*
D02*
G37*
G36*
X-794D02*
X-819D01*
Y636D01*
X-794D01*
Y657D01*
D02*
G37*
G36*
X-541D02*
X-566D01*
Y636D01*
X-541D01*
Y657D01*
D02*
G37*
G36*
X-754Y385D02*
X-775D01*
Y363D01*
X-754D01*
Y385D01*
D02*
G37*
G36*
X-425Y464D02*
Y446D01*
X-402D01*
Y464D01*
X-425D01*
D02*
G37*
G36*
X-541Y626D02*
X-566D01*
Y606D01*
X-541D01*
Y626D01*
D02*
G37*
G36*
X-58Y-112D02*
X-78D01*
Y-130D01*
X-58D01*
Y-112D01*
D02*
G37*
G36*
X-1051Y-90D02*
X-1085D01*
Y-124D01*
X-1080Y-124D01*
X-1070Y-120D01*
X-1062Y-113D01*
X-1055Y-105D01*
X-1051Y-95D01*
X-1051Y-90D01*
D02*
G37*
G36*
X-990Y-47D02*
X-1000Y-48D01*
X-1009Y-52D01*
X-1017Y-58D01*
X-1023Y-66D01*
X-1027Y-75D01*
X-1028Y-85D01*
X-1027Y-95D01*
X-1023Y-104D01*
X-1017Y-112D01*
X-1009Y-118D01*
X-1000Y-122D01*
X-990Y-123D01*
X-980Y-122D01*
X-971Y-118D01*
X-963Y-112D01*
X-957Y-104D01*
X-953Y-95D01*
X-952Y-85D01*
X-953Y-75D01*
X-957Y-66D01*
X-963Y-58D01*
X-971Y-52D01*
X-980Y-48D01*
X-990Y-47D01*
D02*
G37*
G36*
X-58Y-180D02*
X-78D01*
Y-198D01*
X-58D01*
Y-180D01*
D02*
G37*
G36*
X-381Y-167D02*
X-399D01*
Y-190D01*
X-381D01*
Y-167D01*
D02*
G37*
G36*
X-354D02*
X-371D01*
Y-190D01*
X-354D01*
Y-167D01*
D02*
G37*
G36*
X-990Y53D02*
X-1000Y52D01*
X-1009Y48D01*
X-1017Y42D01*
X-1023Y34D01*
X-1027Y25D01*
X-1028Y15D01*
X-1027Y5D01*
X-1023Y-4D01*
X-1017Y-12D01*
X-1009Y-18D01*
X-1000Y-22D01*
X-990Y-23D01*
X-980Y-22D01*
X-971Y-18D01*
X-963Y-12D01*
X-957Y-4D01*
X-953Y5D01*
X-952Y15D01*
X-953Y25D01*
X-957Y34D01*
X-963Y42D01*
X-971Y48D01*
X-980Y52D01*
X-990Y53D01*
D02*
G37*
G36*
X85Y7D02*
X67D01*
Y-12D01*
X85D01*
Y7D01*
D02*
G37*
G36*
X-597Y52D02*
X-687D01*
Y15D01*
X-597D01*
Y52D01*
D02*
G37*
G36*
X-1085Y-46D02*
Y-80D01*
X-1051D01*
X-1051Y-75D01*
X-1055Y-65D01*
X-1062Y-57D01*
X-1070Y-50D01*
X-1080Y-46D01*
X-1085Y-46D01*
D02*
G37*
G36*
X-51Y73D02*
X-65Y71D01*
X-79Y67D01*
X-91Y61D01*
X-103Y52D01*
X-112Y40D01*
X-118Y28D01*
X-122Y14D01*
X-124Y0D01*
X-122Y-14D01*
X-118Y-28D01*
X-112Y-40D01*
X-103Y-52D01*
X-91Y-61D01*
X-79Y-67D01*
X-65Y-71D01*
X-51Y-73D01*
X-37Y-71D01*
X-23Y-67D01*
X-11Y-61D01*
X1Y-52D01*
X10Y-40D01*
X16Y-28D01*
X20Y-14D01*
X22Y0D01*
X20Y14D01*
X16Y28D01*
X10Y40D01*
X1Y52D01*
X-11Y61D01*
X-23Y67D01*
X-37Y71D01*
X-51Y73D01*
D02*
G37*
G36*
X-597Y5D02*
X-687D01*
Y-32D01*
X-597D01*
Y5D01*
D02*
G37*
%LPD*%
D10*
X135Y-63D02*
D03*
Y-17D02*
D03*
X90Y-63D02*
D03*
Y-17D02*
D03*
X150Y-397D02*
D03*
Y-443D02*
D03*
X-545Y222D02*
D03*
Y268D02*
D03*
X-600D02*
D03*
Y222D02*
D03*
X90Y-392D02*
D03*
Y-438D02*
D03*
X-15Y-312D02*
D03*
Y-358D02*
D03*
X70Y248D02*
D03*
Y202D02*
D03*
X-130Y248D02*
D03*
Y202D02*
D03*
X-430Y-467D02*
D03*
Y-513D02*
D03*
Y-413D02*
D03*
Y-367D02*
D03*
X-1110Y553D02*
D03*
Y507D02*
D03*
Y443D02*
D03*
Y397D02*
D03*
X30Y-392D02*
D03*
Y-438D02*
D03*
X890Y567D02*
D03*
Y613D02*
D03*
X-625Y-547D02*
D03*
Y-593D02*
D03*
X950Y613D02*
D03*
Y567D02*
D03*
X245Y-497D02*
D03*
Y-543D02*
D03*
D11*
X82Y100D02*
D03*
X128D02*
D03*
X-627Y440D02*
D03*
X-673D02*
D03*
X1072Y565D02*
D03*
X1118D02*
D03*
X-248Y-190D02*
D03*
X-202D02*
D03*
X-1062Y620D02*
D03*
X-1108D02*
D03*
X-933Y220D02*
D03*
X-887D02*
D03*
X777Y565D02*
D03*
X823D02*
D03*
X657Y-620D02*
D03*
X703D02*
D03*
D12*
X-53Y-175D02*
D03*
X3D02*
D03*
Y-135D02*
D03*
X-53D02*
D03*
X1133Y655D02*
D03*
X1077D02*
D03*
Y615D02*
D03*
X1133D02*
D03*
D13*
X-536Y549D02*
D03*
Y631D02*
D03*
X-824Y549D02*
D03*
Y631D02*
D03*
D14*
X-591Y521D02*
D03*
X-710D02*
D03*
X-769D02*
D03*
D15*
X-277Y355D02*
D03*
X-301D02*
D03*
Y424D02*
D03*
X-277D02*
D03*
D16*
X-323Y366D02*
D03*
Y389D02*
D03*
Y413D02*
D03*
X-255D02*
D03*
Y389D02*
D03*
Y366D02*
D03*
D17*
X3Y225D02*
D03*
X-63Y199D02*
D03*
Y251D02*
D03*
D18*
X936Y-610D02*
D03*
X984D02*
D03*
X96Y609D02*
D03*
X144D02*
D03*
X-966Y620D02*
D03*
X-1014D02*
D03*
X936Y-565D02*
D03*
X984D02*
D03*
X1139Y-675D02*
D03*
X1091D02*
D03*
D19*
X320Y-268D02*
D03*
Y-201D02*
D03*
Y-134D02*
D03*
Y-67D02*
D03*
Y0D02*
D03*
Y67D02*
D03*
Y134D02*
D03*
Y201D02*
D03*
Y268D02*
D03*
D20*
X335Y472D02*
D03*
X402D02*
D03*
X469D02*
D03*
X536D02*
D03*
X603D02*
D03*
X670D02*
D03*
X737D02*
D03*
X804D02*
D03*
X871D02*
D03*
X938D02*
D03*
X1005D02*
D03*
X1072D02*
D03*
X1139D02*
D03*
Y-472D02*
D03*
X1072D02*
D03*
X1005D02*
D03*
X938D02*
D03*
X871D02*
D03*
X804D02*
D03*
X737D02*
D03*
X670D02*
D03*
X603D02*
D03*
X536D02*
D03*
X469D02*
D03*
X402D02*
D03*
X335D02*
D03*
D21*
X-169Y-428D02*
D03*
X-150D02*
D03*
X-130D02*
D03*
X-110D02*
D03*
X-91D02*
D03*
Y-332D02*
D03*
X-110D02*
D03*
X-130D02*
D03*
X-150D02*
D03*
X-169D02*
D03*
D22*
X-82Y-400D02*
D03*
Y-380D02*
D03*
Y-360D02*
D03*
X-178Y-360D02*
D03*
Y-380D02*
D03*
Y-400D02*
D03*
D23*
X160Y559D02*
D03*
X140D02*
D03*
X120D02*
D03*
X100D02*
D03*
Y498D02*
D03*
X120D02*
D03*
X140D02*
D03*
X160D02*
D03*
D24*
X99Y538D02*
D03*
Y519D02*
D03*
X161D02*
D03*
Y538D02*
D03*
D25*
X-498Y-449D02*
D03*
Y-430D02*
D03*
Y-410D02*
D03*
Y-390D02*
D03*
Y-371D02*
D03*
X-662Y-449D02*
D03*
Y-430D02*
D03*
Y-410D02*
D03*
Y-390D02*
D03*
Y-371D02*
D03*
D26*
X-967Y556D02*
D03*
Y504D02*
D03*
X-1053D02*
D03*
Y530D02*
D03*
Y556D02*
D03*
D27*
X-572Y-533D02*
D03*
Y-607D02*
D03*
X-488Y-570D02*
D03*
X-886Y278D02*
D03*
Y352D02*
D03*
X-971Y315D02*
D03*
D28*
X-743Y442D02*
D03*
X-817D02*
D03*
X-780Y358D02*
D03*
X-45Y442D02*
D03*
X-8Y358D02*
D03*
X-82D02*
D03*
D29*
X-777Y-450D02*
D03*
X-963D02*
D03*
D30*
X-435Y579D02*
D03*
Y531D02*
D03*
X-375Y366D02*
D03*
Y414D02*
D03*
X-240Y-364D02*
D03*
Y-316D02*
D03*
X-290Y-364D02*
D03*
Y-316D02*
D03*
X50Y531D02*
D03*
Y579D02*
D03*
X5Y531D02*
D03*
Y579D02*
D03*
X-380Y141D02*
D03*
Y189D02*
D03*
Y-366D02*
D03*
Y-414D02*
D03*
X225Y49D02*
D03*
Y1D02*
D03*
X180Y49D02*
D03*
Y1D02*
D03*
D31*
X-430Y369D02*
D03*
Y441D02*
D03*
D32*
X-304Y-195D02*
D03*
X-376D02*
D03*
D33*
X-487Y-300D02*
D03*
X-563D02*
D03*
X-487Y-220D02*
D03*
X-563D02*
D03*
X-948Y-270D02*
D03*
X-872D02*
D03*
D34*
X-828Y10D02*
D03*
X-592D02*
D03*
D35*
X-307Y-92D02*
D03*
X-203D02*
D03*
D36*
X-266Y541D02*
D03*
Y580D02*
D03*
Y619D02*
D03*
X-384D02*
D03*
Y580D02*
D03*
Y541D02*
D03*
D37*
X-325Y580D02*
D03*
D38*
X-336Y87D02*
D03*
X-356D02*
D03*
X-376D02*
D03*
X-396D02*
D03*
Y13D02*
D03*
X-376D02*
D03*
X-356D02*
D03*
X-336D02*
D03*
D39*
X-403Y50D02*
D03*
X-329D02*
D03*
D40*
X821Y620D02*
D03*
X739D02*
D03*
D41*
X1089Y-571D02*
D03*
Y-622D02*
D03*
Y-597D02*
D03*
X1152D02*
D03*
Y-622D02*
D03*
Y-571D02*
D03*
D42*
X150Y-573D02*
D03*
X124Y-507D02*
D03*
X176D02*
D03*
D43*
X1139Y-558D02*
Y-472D01*
Y-558D02*
X1152Y-571D01*
Y-597D02*
Y-571D01*
X-230Y580D02*
X-220Y590D01*
X-266Y580D02*
X-230D01*
X536Y361D02*
Y472D01*
X490Y315D02*
X536Y361D01*
X490Y267D02*
Y315D01*
X603Y472D02*
Y536D01*
X592Y547D02*
X603Y536D01*
X316Y547D02*
X592D01*
X670Y472D02*
Y535D01*
X640Y565D02*
X670Y535D01*
X311Y565D02*
X640D01*
X470Y247D02*
X490Y267D01*
X460Y247D02*
X470D01*
X383Y170D02*
X460Y247D01*
X469Y359D02*
Y472D01*
X431Y321D02*
X469Y359D01*
X150Y170D02*
X383D01*
X128Y148D02*
X150Y170D01*
X203Y225D02*
X247D01*
X266Y207D01*
Y201D02*
X320D01*
X266D02*
Y207D01*
X243Y268D02*
X320D01*
X128Y100D02*
Y148D01*
X135Y-17D02*
Y50D01*
X165Y80D01*
X175D01*
X195Y100D01*
X410D01*
X320Y134D02*
X401D01*
X402Y367D02*
Y472D01*
X82Y100D02*
X90Y108D01*
Y140D01*
X3Y-135D02*
X70D01*
X90Y-115D01*
X55Y-175D02*
X135Y-95D01*
X3Y-175D02*
X55D01*
X135Y-95D02*
Y-63D01*
X90Y-115D02*
Y-63D01*
X-331Y144D02*
X-231D01*
X-1140Y65D02*
X-1090Y115D01*
X-1140Y-157D02*
Y65D01*
X-1170Y-187D02*
X-1140Y-157D01*
X-1170Y-285D02*
Y-187D01*
Y-285D02*
X-1130Y-325D01*
Y-610D02*
Y-325D01*
Y-610D02*
X-1115Y-625D01*
X-655D01*
X-635Y-645D01*
X-495D01*
X-485Y-635D01*
X150D01*
X-105Y-513D02*
X-32Y-586D01*
Y-609D02*
Y-586D01*
X325Y-570D02*
X540D01*
X285Y-530D02*
X325Y-570D01*
X285Y-530D02*
Y-360D01*
X242Y-317D02*
X285Y-360D01*
X242Y-317D02*
Y-268D01*
X150Y-615D02*
Y-573D01*
Y-635D02*
Y-615D01*
X155Y-620D01*
X570D01*
X657D01*
X703D02*
Y-602D01*
X720Y-585D01*
X840D01*
X965Y-660D02*
X1055D01*
X1070Y-675D01*
X1042Y-597D02*
X1089D01*
X1035Y-555D02*
X1073D01*
X1089Y-571D01*
X1035Y-635D02*
X1084Y-622D01*
X1070Y-675D02*
X1091D01*
X1147Y-622D02*
X1150Y-625D01*
X1185D01*
X1190Y-630D01*
Y-665D02*
Y-630D01*
X1180Y-675D02*
X1190Y-665D01*
X1139Y-675D02*
X1180D01*
X145Y-438D02*
X150Y-443D01*
X90Y-438D02*
X145D01*
X30D02*
X90D01*
X75Y-335D02*
X90Y-350D01*
Y-392D02*
Y-350D01*
X-15Y-410D02*
X3Y-392D01*
X30D01*
X-90Y-455D02*
X-35Y-510D01*
X-110Y-455D02*
X-90D01*
X-50Y-410D02*
X-15D01*
X-545Y222D02*
X-488D01*
X-545Y268D02*
Y310D01*
X-600Y268D02*
X-545D01*
X140Y580D02*
Y605D01*
Y559D02*
Y580D01*
X125D02*
X140D01*
X120Y575D02*
X125Y580D01*
X120Y559D02*
Y575D01*
X78Y538D02*
X99D01*
X57D02*
X78D01*
X86Y519D02*
X99D01*
X78Y527D02*
X86Y519D01*
X78Y527D02*
Y538D01*
X-336Y1D02*
X-320Y-15D01*
X-336Y1D02*
Y13D01*
X-232Y366D02*
X-232Y366D01*
X-255Y366D02*
X-232D01*
X-255Y413D02*
X-217D01*
X-255Y389D02*
X-176D01*
X-277Y342D02*
X-245Y310D01*
X-360Y470D02*
X-184D01*
X-384Y494D02*
X-360Y470D01*
X-384Y494D02*
Y541D01*
X-301Y439D02*
X-290Y450D01*
X-140D01*
X-169Y485D02*
X-110D01*
X-184Y470D02*
X-169Y485D01*
X-140Y450D02*
X-95Y405D01*
X-55D01*
X-8Y358D01*
X161Y538D02*
X202D01*
X205Y535D01*
X200Y475D02*
Y500D01*
X181Y519D02*
X200Y500D01*
X-887Y268D02*
X-878Y278D01*
X-887Y220D02*
Y268D01*
X-740Y440D02*
X-673D01*
X-710Y443D02*
Y521D01*
X-1110Y443D02*
Y507D01*
X-40Y-360D02*
X-18D01*
X-82D02*
X-40D01*
Y-370D02*
Y-360D01*
X-50Y-380D02*
X-40Y-370D01*
X-82Y-380D02*
X-50D01*
X-349Y366D02*
X-323D01*
X-374D02*
X-349D01*
Y349D02*
Y366D01*
Y349D02*
X-329Y329D01*
X-313D01*
X-301Y341D01*
Y355D01*
X-374Y413D02*
X-349D01*
Y399D02*
Y413D01*
Y399D02*
X-339Y389D01*
X-323D01*
X216Y559D02*
X249Y526D01*
Y486D02*
Y526D01*
X265Y479D02*
Y519D01*
X282Y472D02*
Y513D01*
X161Y519D02*
X181D01*
X160Y559D02*
X216D01*
X-82Y-400D02*
X-60D01*
X-50Y-410D01*
X-325Y580D02*
X-310Y565D01*
X-495Y-485D02*
Y-433D01*
X-240Y-316D02*
X-221D01*
X-195Y-290D01*
X-175D01*
X-150Y-315D01*
Y-332D02*
Y-315D01*
X-240Y-316D02*
X-239Y-315D01*
X1150Y390D02*
Y461D01*
X1133Y615D02*
Y655D01*
Y580D02*
Y615D01*
X1118Y565D02*
X1133Y580D01*
X1118Y538D02*
X1139Y517D01*
X1118Y538D02*
Y565D01*
X-966Y620D02*
X-935D01*
X-585Y-460D02*
X-572Y-473D01*
X-615Y-430D02*
X-585Y-460D01*
X-605Y-480D02*
X-585Y-460D01*
X871Y394D02*
Y472D01*
X-140Y-290D02*
X-130Y-300D01*
Y-332D02*
Y-300D01*
X100Y559D02*
Y605D01*
X-498Y-410D02*
X-384D01*
X-430Y-467D02*
Y-413D01*
X-487Y-570D02*
X-430Y-513D01*
X-488Y-570D02*
X-487D01*
X-625Y-547D02*
X-587D01*
X-572Y-533D01*
Y-473D01*
X-662Y-430D02*
X-615D01*
X-725Y-443D02*
X-692Y-410D01*
X-975Y-540D02*
X-895D01*
X-855Y-580D01*
X-730D01*
X-725Y-575D01*
Y-443D01*
X-1110Y553D02*
Y618D01*
X-1107Y504D02*
X-1053D01*
X-1062Y620D02*
X-1014D01*
X-1110Y553D02*
X-1056D01*
X-967Y556D02*
X-966Y556D01*
X-1053Y530D02*
X-1030D01*
X-1014Y546D01*
Y620D01*
X1077Y570D02*
Y615D01*
Y615D01*
X-187Y-428D02*
X-169D01*
X-205Y-410D02*
X-187Y-428D01*
X-205Y-410D02*
Y-360D01*
X-237D02*
X-205D01*
X-178D01*
X242Y-268D02*
X320D01*
X-110Y-455D02*
Y-428D01*
X-290Y-364D02*
X-240D01*
X-15Y-312D02*
Y-255D01*
X265Y519D02*
X311Y565D01*
X282Y513D02*
X316Y547D01*
X144Y358D02*
X265Y479D01*
X147Y337D02*
X282Y472D01*
X-349Y413D02*
X-323D01*
X-266Y541D02*
X-261D01*
X-240Y520D02*
X-165D01*
X-261Y541D02*
X-240Y520D01*
X-277Y342D02*
Y355D01*
X197Y433D02*
X249Y486D01*
X-110Y485D02*
X-108D01*
X-336Y87D02*
Y109D01*
X-325Y120D01*
X-356Y87D02*
Y119D01*
X-110Y-455D02*
X-110Y-455D01*
X-26Y-433D02*
X-25Y-435D01*
X-85Y-433D02*
X-26D01*
X-63Y251D02*
X-4D01*
X228Y321D02*
X431D01*
X212Y305D02*
X228Y321D01*
X50Y305D02*
X212D01*
X-4Y251D02*
X50Y305D01*
X140Y485D02*
X150Y475D01*
X140Y485D02*
Y498D01*
X160Y485D02*
Y498D01*
X150Y475D02*
X160Y485D01*
X80Y478D02*
X100Y498D01*
X120Y470D02*
Y498D01*
X150Y455D02*
Y475D01*
X134Y440D02*
X150Y455D01*
X65Y440D02*
X134D01*
X50Y455D02*
X65Y440D01*
X50Y455D02*
Y530D01*
Y531D01*
X-301Y424D02*
Y439D01*
X37Y337D02*
X147D01*
X25Y325D02*
X37Y337D01*
X-50Y325D02*
X25D01*
X-82Y358D02*
X-50Y325D01*
X-8Y358D02*
X144D01*
X-376Y87D02*
Y137D01*
X-396Y-20D02*
Y13D01*
X-376Y-16D02*
Y13D01*
X-380Y-20D02*
X-376Y-16D01*
X-485Y-20D02*
X-380D01*
X-325Y120D02*
X-265D01*
X-425Y85D02*
X-423Y87D01*
X-396D01*
X215Y-200D02*
X319D01*
X-45Y442D02*
X-2D01*
X-112Y358D02*
X-82D01*
X-130Y340D02*
X-112Y358D01*
X70Y248D02*
Y280D01*
X203Y203D02*
Y225D01*
X195Y195D02*
X203Y203D01*
X23Y255D02*
X35D01*
X14Y246D02*
X23Y255D01*
X14Y235D02*
Y246D01*
X-380Y141D02*
X-350Y171D01*
Y182D01*
X-330Y202D01*
X-300Y20D02*
X-175D01*
X-245Y310D02*
X-205D01*
X-210Y315D02*
X-205Y310D01*
X-330Y202D02*
X-266D01*
X-130Y248D02*
Y280D01*
X-261Y202D02*
X-130D01*
X70D01*
X-130Y248D02*
X-66D01*
X-356Y119D02*
X-331Y144D01*
X113Y-498D02*
X115Y-500D01*
D44*
X125Y-155D02*
X180Y-100D01*
X125Y-230D02*
Y-155D01*
X60Y-250D02*
X105D01*
X-485D02*
X60D01*
Y-215D01*
X-30Y530D02*
Y635D01*
X-60Y665D02*
X-30Y635D01*
X-440Y665D02*
X-60D01*
X-885Y415D02*
X-858Y442D01*
X-885Y360D02*
Y415D01*
X-858Y442D02*
X-828D01*
X-1079Y256D02*
X-1020Y315D01*
X-971D01*
X-487Y-360D02*
Y-300D01*
X-485Y620D02*
X-440Y665D01*
X1072Y-472D02*
Y-358D01*
X1043Y-330D02*
X1072Y-358D01*
X1005Y-330D02*
X1043D01*
X180Y-100D02*
Y1D01*
X-485Y-298D02*
Y-250D01*
Y-20D01*
Y620D01*
X105Y-250D02*
X125Y-230D01*
D45*
X160Y-175D02*
X268Y-67D01*
X160Y-305D02*
Y-175D01*
X187Y-188D02*
X241Y-134D01*
X187Y-498D02*
Y-188D01*
X1005Y-610D02*
Y-565D01*
X984Y-610D02*
X1005D01*
Y-565D02*
Y-472D01*
X150Y-573D02*
Y-458D01*
X-260Y-15D02*
X-203Y-72D01*
X-320Y-15D02*
X-260D01*
X112Y640D02*
X144Y609D01*
X45Y640D02*
X112D01*
X25Y620D02*
X45Y640D01*
X30Y620D02*
X50Y600D01*
Y579D02*
Y600D01*
X5D02*
X25Y620D01*
X5Y579D02*
Y600D01*
X-325Y495D02*
Y580D01*
X-627Y440D02*
X-590D01*
Y520D01*
X-967Y504D02*
X-921D01*
X-1110Y397D02*
X-1053D01*
X-1010Y440D01*
Y512D01*
X-967Y556D01*
X-800Y510D02*
X-780D01*
X-820Y490D02*
X-800Y510D01*
X-820Y450D02*
Y490D01*
X-780Y510D02*
X-769Y521D01*
X-915Y645D02*
X-860Y590D01*
X-790D01*
X-769Y569D01*
Y521D02*
Y569D01*
X-498Y-371D02*
X-384D01*
X308Y79D02*
X320Y67D01*
X225Y79D02*
X308D01*
X225Y49D02*
Y79D01*
X180Y49D02*
X225D01*
X737Y472D02*
Y547D01*
X750Y560D01*
X777D01*
X-380Y-366D02*
X-379Y-365D01*
X-384Y-371D02*
X-380Y-366D01*
X-966Y556D02*
Y620D01*
X-1014D02*
X-988Y645D01*
X-915D01*
X890Y567D02*
X938Y520D01*
X950Y567D02*
X1005Y513D01*
X950Y613D02*
X1003D01*
X1045Y655D01*
X1082D01*
X927Y650D02*
X995D01*
X890Y613D02*
X927Y650D01*
X1045Y615D02*
X1077D01*
X1072Y397D02*
Y472D01*
X675Y585D02*
Y605D01*
X690Y620D01*
X739D01*
X984Y-565D02*
X1005D01*
X-380Y-366D02*
X-293D01*
X815Y527D02*
Y555D01*
X821Y561D02*
Y620D01*
X319Y-200D02*
X320Y-201D01*
X241Y-134D02*
X320D01*
X268Y-67D02*
X320D01*
X-434Y580D02*
X-384D01*
X150Y-412D02*
Y-315D01*
X160Y-305D01*
X187Y-498D02*
X245D01*
X250Y-502D01*
D46*
X67Y-507D02*
X80Y-520D01*
X55Y-495D02*
X67Y-507D01*
X80Y-565D02*
Y-520D01*
X245Y-585D02*
Y-543D01*
X67Y-507D02*
X124D01*
X-304Y-195D02*
Y-95D01*
X-30Y530D02*
X50D01*
X-1010Y440D02*
X-933Y363D01*
X335Y390D02*
Y472D01*
X1139Y-401D02*
X1150Y-390D01*
X1139Y-472D02*
Y-401D01*
X180Y1D02*
X225D01*
X-795Y-390D02*
X-705D01*
X225Y1D02*
X318D01*
X-428Y366D02*
X-375D01*
X-484Y369D02*
X-430D01*
X-484Y579D02*
X-435D01*
X-481Y141D02*
X-385D01*
X-299Y-190D02*
X-248D01*
X-202Y-248D02*
Y-190D01*
X-933Y160D02*
Y220D01*
Y363D01*
Y160D02*
X-828Y55D01*
Y10D02*
Y55D01*
D47*
X-1100Y-256D02*
X-1026D01*
X-952Y-439D02*
Y-278D01*
X-958Y-446D02*
X-952Y-439D01*
X-1072Y-270D02*
X-960D01*
X1005Y-472D02*
Y-330D01*
Y-320D01*
X915Y-230D02*
X1005Y-320D01*
X695Y-230D02*
X915D01*
X465Y0D02*
X695Y-230D01*
X320Y0D02*
X465D01*
X-1026Y-256D02*
X-828Y-58D01*
Y10D01*
X-960Y-270D02*
X-952Y-278D01*
D48*
X-705Y-390D02*
X-662D01*
D49*
X-277Y413D02*
Y424D01*
X-301Y389D02*
X-277Y413D01*
X-301Y355D02*
Y389D01*
D50*
X-51Y0D02*
D03*
D51*
X-1100Y256D02*
D03*
Y-256D02*
D03*
D52*
X-990Y115D02*
D03*
Y-85D02*
D03*
Y15D02*
D03*
X-1090D02*
D03*
Y-85D02*
D03*
D53*
Y115D02*
D03*
D54*
X45Y35D02*
D03*
X-220Y590D02*
D03*
X-1160Y180D02*
D03*
Y-505D02*
D03*
Y-420D02*
D03*
X-678Y-514D02*
D03*
X-290Y-585D02*
D03*
X243Y268D02*
D03*
X410Y100D02*
D03*
X460Y270D02*
D03*
Y170D02*
D03*
X401Y134D02*
D03*
X402Y367D02*
D03*
X90Y140D02*
D03*
X40Y-135D02*
D03*
X-315Y145D02*
D03*
X-105Y-513D02*
D03*
X-32Y-609D02*
D03*
X190Y-660D02*
D03*
X80Y-565D02*
D03*
X55Y-495D02*
D03*
X20Y-520D02*
D03*
X245Y-585D02*
D03*
X545Y-570D02*
D03*
X570Y-620D02*
D03*
X840Y-585D02*
D03*
X965Y-660D02*
D03*
X1035Y-595D02*
D03*
Y-635D02*
D03*
Y-555D02*
D03*
X1180Y-675D02*
D03*
X60Y-215D02*
D03*
X150Y-635D02*
D03*
X75Y-335D02*
D03*
X-35Y-510D02*
D03*
X-545Y310D02*
D03*
X-430Y-155D02*
D03*
Y-65D02*
D03*
X25Y620D02*
D03*
X-80Y590D02*
D03*
X-232Y366D02*
D03*
X-217Y413D02*
D03*
X-176Y389D02*
D03*
X-435Y490D02*
D03*
X-325Y495D02*
D03*
X205Y535D02*
D03*
X200Y475D02*
D03*
X-869Y549D02*
D03*
X-600Y350D02*
D03*
Y660D02*
D03*
X-750D02*
D03*
X-840Y350D02*
D03*
X-720D02*
D03*
X-590Y440D02*
D03*
X-921Y504D02*
D03*
X-160Y-480D02*
D03*
X-50Y-410D02*
D03*
X-1160Y-340D02*
D03*
X-870Y-190D02*
D03*
X-570Y-140D02*
D03*
X-750Y100D02*
D03*
Y-100D02*
D03*
X-495Y-485D02*
D03*
X-195Y-290D02*
D03*
X-355Y-310D02*
D03*
X335Y390D02*
D03*
X780Y670D02*
D03*
X600Y660D02*
D03*
X500D02*
D03*
X400D02*
D03*
X300D02*
D03*
X200D02*
D03*
X950Y-350D02*
D03*
X850D02*
D03*
X750D02*
D03*
X650D02*
D03*
X550D02*
D03*
X450D02*
D03*
Y-260D02*
D03*
Y-160D02*
D03*
Y-60D02*
D03*
Y70D02*
D03*
X520Y310D02*
D03*
X620D02*
D03*
X720D02*
D03*
X810D02*
D03*
X900D02*
D03*
X1070D02*
D03*
X1150Y390D02*
D03*
X1160Y310D02*
D03*
Y210D02*
D03*
Y110D02*
D03*
Y10D02*
D03*
Y-90D02*
D03*
Y-190D02*
D03*
Y-290D02*
D03*
Y-390D02*
D03*
X890Y-660D02*
D03*
X790D02*
D03*
X690D02*
D03*
X590D02*
D03*
X490D02*
D03*
X390D02*
D03*
X290D02*
D03*
X80D02*
D03*
X-20D02*
D03*
X-150D02*
D03*
X-380D02*
D03*
X-290D02*
D03*
X-470D02*
D03*
X-660D02*
D03*
X-760D02*
D03*
X-860D02*
D03*
X-960D02*
D03*
X-1060D02*
D03*
X-1160D02*
D03*
Y350D02*
D03*
Y470D02*
D03*
Y590D02*
D03*
X-1030Y660D02*
D03*
X-1160D02*
D03*
X-930Y615D02*
D03*
X-605Y-480D02*
D03*
X871Y394D02*
D03*
X-140Y-290D02*
D03*
Y-180D02*
D03*
X675Y585D02*
D03*
X1070Y395D02*
D03*
X1045Y615D02*
D03*
X995Y650D02*
D03*
X242Y-268D02*
D03*
X-110Y-455D02*
D03*
X-750Y-200D02*
D03*
X-650Y-300D02*
D03*
X190Y440D02*
D03*
X260Y580D02*
D03*
X735Y-165D02*
D03*
X883Y-163D02*
D03*
X1046Y-264D02*
D03*
X580Y-200D02*
D03*
X990Y310D02*
D03*
X215Y-200D02*
D03*
X-165Y520D02*
D03*
X-110Y485D02*
D03*
X-25Y-435D02*
D03*
X70Y280D02*
D03*
X80Y478D02*
D03*
X120Y470D02*
D03*
X-265Y120D02*
D03*
X-300Y20D02*
D03*
X-425Y85D02*
D03*
X-2Y442D02*
D03*
X-130Y340D02*
D03*
X35Y255D02*
D03*
X195Y195D02*
D03*
X-175Y20D02*
D03*
X-210Y315D02*
D03*
X-130Y280D02*
D03*
X-380Y240D02*
D03*
X-231Y144D02*
D03*
M02*
