M48
;Layer_Color=9474304
;FILE_FORMAT=2:3
INCH,LZ
;TYPE=PLATED
T1F00S00C0.015
T2F00S00C0.035
T3F00S00C0.059
;TYPE=NON_PLATED
T4F00S00C0.035
T5F00S00C0.125
%
T01
X-0116Y-0066
Y-00505
Y-0042
Y-0034
Y0018
Y0035
Y0047
Y0059
Y0066
X-0103
X-0093Y00615
X-00921Y00504
X-00869Y00549
X-0084Y0035
X-0072
X-006
X-00545Y0031
X-0059Y0044
X-00435Y0049
X-00325Y00495
X-00165Y0052
X-0011Y00485
X-0008Y0059
X00025Y0062
X0008Y00478
X0012Y0047
X002Y00475
X0019Y0044
X00205Y00535
X0026Y0058
X003Y0066
X004
X002
X00335Y0039
X00402Y00367
X0046Y0027
Y0017
X00401Y00134
X0041Y001
X0045Y0007
Y-0006
Y-0016
Y-0026
Y-0035
X00242Y-00268
X00215Y-002
X0006Y-00215
X0004Y-00135
X00045Y00035
X0009Y0014
X0007Y0028
X00035Y00255
X-0013Y0028
Y0034
X-00176Y00389
X-00217Y00413
X-00232Y00366
X-0021Y00315
X-00231Y00144
X-00265Y0012
X-00315Y00145
X-003Y0002
X-00175
X-0014Y-0018
Y-0029
X-00195
X-00355Y-0031
X-0043Y-00155
Y-00065
X-00425Y00085
X-0038Y0024
X-0022Y0059
X-00002Y00442
X00243Y00268
X00195Y00195
X00075Y-00335
X00055Y-00495
X0002Y-0052
X-00035Y-0051
X-00105Y-00513
X-0011Y-00455
X-0016Y-0048
X-0005Y-0041
X-00025Y-00435
X-00032Y-00609
X-0002Y-0066
X0008
Y-00565
X0015Y-00635
X0019Y-0066
X0029
X0039
X0049
X00245Y-00585
X-0015Y-0066
X-0029
Y-00585
X-0038Y-0066
X-0047
X-0066
X-0076
X-0086
X-0096
X-0106
X-00678Y-00514
X-00605Y-0048
X-00495Y-00485
X-0065Y-003
X-0075Y-002
Y-001
Y001
X-0087Y-0019
X-0057Y-0014
X-006Y0066
X-0075
X005
X006
X00675Y00585
X0078Y0067
X00995Y0065
X01045Y00615
X0107Y00395
Y0031
X0099
X009
X0081
X0072
X0062
X0052
X00871Y00394
X0115Y0039
X0116Y0031
Y0021
Y0011
Y0001
Y-0009
Y-0019
Y-0029
Y-0039
X01046Y-00264
X0095Y-0035
X0085
X0075
X0065
X0055
X0058Y-002
X00735Y-00165
X00883Y-00163
X0084Y-00585
X0089Y-0066
X00965
X01035Y-00635
Y-00595
Y-00555
X0118Y-00675
X0079Y-0066
X0069
X0059
X0057Y-0062
X00545Y-0057
T02
X-0109Y-00085
Y00015
Y00115
X-0099
Y00015
Y-00085
T03
X-011Y-00256
Y00256
T04
X-00739Y0059
X-00621
T05
X-00051Y0
M30
